<svg width="254" height="199" viewBox="0 0 254 199" fill="none" xmlns="http://www.w3.org/2000/svg">
<g clip-path="url(#clip0)">
<path opacity="0.1" d="M88.7826 194.205C113.166 194.205 132.932 190.46 132.932 185.841C132.932 181.222 113.166 177.478 88.7826 177.478C64.3996 177.478 44.6332 181.222 44.6332 185.841C44.6332 190.46 64.3996 194.205 88.7826 194.205Z" fill="#060110"/>
<path opacity="0.1" d="M147.051 27.9295C130.825 27.368 115.371 22.1282 100.615 16.397C85.8583 10.6659 71.2421 4.31803 55.405 1.28197C45.2188 -0.671028 33.5685 -0.949312 25.3629 4.50605C17.4631 9.77088 14.911 18.8339 13.5396 27.2501C12.5067 33.583 11.9 40.2492 14.7279 46.1784C16.6935 50.295 20.1783 53.7548 22.5901 57.6984C30.9812 71.417 25.0495 88.3347 15.9589 101.73C11.6969 108.013 6.74546 114.015 3.45369 120.696C0.161914 127.377 -1.35987 135.059 1.52074 141.893C4.37378 148.662 11.1754 153.736 18.5437 157.309C33.5083 164.567 51.1355 166.643 68.3364 167.821C106.401 170.423 144.666 169.298 182.831 168.167C196.956 167.751 211.141 167.327 225.035 165.144C232.752 163.93 240.717 162.005 246.32 157.357C253.43 151.457 255.193 141.469 250.427 134.074C242.434 121.664 220.342 118.582 214.749 105.267C211.675 97.9367 214.832 89.7737 219.302 82.9771C228.889 68.3935 244.956 55.6 245.801 38.933C246.383 27.4858 238.659 16.021 226.715 10.6032C214.197 4.92473 196.836 5.63925 187.605 15.0382C178.091 24.7055 161.379 28.4284 147.051 27.9295Z" fill="#060110"/>
<path d="M134.158 90.6905L126.479 85.5134L130.352 79.7472L110.07 78.1301L102.782 83.766L93.6588 78.6516L86.0499 79.5667L85.9596 77.561C85.8654 75.4701 85.6554 73.3861 85.3303 71.3184C85.3629 70.6917 85.3855 69.9722 85.383 69.19C85.383 65.8932 84.9367 61.5234 82.9762 58.6101L83.4275 54.5537L79.7672 50.229C80.355 49.0581 81.0252 47.9305 81.7728 46.8545C81.8982 46.674 82.0235 46.4985 82.1589 46.3281C86.9098 45.9846 90.6579 42.0786 90.6579 37.3026C90.6579 37.082 90.6579 36.8614 90.6328 36.6433C90.6328 36.5555 90.6152 36.4653 90.6052 36.3775C91.069 36.6282 91.5378 36.8789 92.0067 37.1296C92.0944 37.255 92.1947 37.3803 92.305 37.5283L92.3276 37.5558L92.468 37.7288L92.5131 37.7815C92.5632 37.8416 92.6159 37.8993 92.6685 37.9595L92.7036 37.9996C92.8365 38.1475 92.9769 38.2979 93.1273 38.4458C93.1452 38.4604 93.162 38.4763 93.1775 38.4935L93.3655 38.669L93.4181 38.7166C93.5786 38.8595 93.7491 38.9974 93.9195 39.1278L93.9747 39.1679L94.1903 39.3158L94.2605 39.3609C94.3432 39.4111 94.4285 39.4637 94.5112 39.5114L94.5413 39.5289C94.6391 39.5815 94.7393 39.6317 94.8396 39.6793L94.8898 39.6994C94.975 39.7362 95.0586 39.7712 95.1405 39.8047L95.2182 39.8323C95.3059 39.8623 95.3912 39.8899 95.4814 39.915L95.5366 39.93C95.6469 39.9576 95.7572 39.9802 95.87 39.9977H95.8826C95.9888 40.0149 96.096 40.0258 96.2035 40.0303H96.2762C96.3722 40.0353 96.4685 40.0353 96.5645 40.0303H96.6272C96.7474 40.0234 96.8671 40.0092 96.9857 39.9877C97.5466 39.9139 98.0852 39.7207 98.5651 39.4211C98.6873 39.3394 98.7956 39.2387 98.886 39.1228C99.3874 38.4659 98.8359 37.7464 98.8359 37.7464C98.6403 37.2801 97.3718 36.9516 97.3718 36.9516C97.3718 36.9516 93.3605 35.2769 93.3605 33.9432C93.3605 32.6094 92.3576 25.6899 82.006 24.108C82.006 24.108 75.272 23.7294 73.3792 27.3345L73.3391 27.7557C72.7825 28.1042 72.3212 28.8037 71.7722 29.0093C71.535 29.0602 71.3062 29.1446 71.0927 29.26V29.2123C71.0294 29.2678 70.9774 29.3351 70.9398 29.4104C70.8219 29.6451 70.7512 29.9006 70.7317 30.1625C70.6752 30.4825 70.5641 30.7903 70.4033 31.0726C70.3585 31.1528 70.3082 31.2299 70.2529 31.3032L70.2103 31.3709C70.5013 31.3936 70.7936 31.3463 71.0627 31.233C71.0203 31.5763 70.9361 31.913 70.812 32.2359C70.9713 32.241 71.1288 32.2003 71.2657 32.1185C71.4026 32.0367 71.5131 31.9173 71.5841 31.7746V31.7545L71.6167 31.7094C71.6798 31.5933 71.7318 31.4716 71.7722 31.3458L71.7446 31.3759C71.7947 31.213 71.8398 31.0475 71.895 30.8871C71.9203 30.7967 71.9619 30.7117 72.0178 30.6363C72.0848 30.5689 72.1666 30.5181 72.2567 30.488C72.3469 30.458 72.4428 30.4495 72.5368 30.4634L72.434 32.637H72.4791C72.4188 32.7951 72.345 32.9477 72.2585 33.0933C71.9025 33.6699 71.2557 34.0635 71.0175 34.6953C70.9148 35 70.8756 35.3225 70.9022 35.643C70.9022 35.831 70.9248 36.0215 70.9398 36.2096V36.1945C70.9749 36.6959 70.9849 37.1723 70.7142 37.5759C70.5287 37.8517 70.2303 38.0598 70.1275 38.3731C70.0991 38.4605 70.0864 38.5521 70.0899 38.6439C70.11 38.9186 70.1674 39.1894 70.2604 39.4487C70.2615 39.4437 70.2615 39.4386 70.2604 39.4336C70.3229 39.6244 70.3376 39.8276 70.303 40.0253C70.1902 40.5267 69.581 40.9454 69.6111 41.4242C69.6094 41.4872 69.6187 41.55 69.6386 41.6098C69.7559 41.8437 69.9588 42.0233 70.2052 42.1112C70.5918 42.331 71.0357 42.4288 71.4788 42.392C71.6449 42.362 71.8055 42.307 71.9552 42.229C71.7797 42.6326 71.5992 43.0313 71.4162 43.4098C71.3886 43.47 71.3585 43.5302 71.3284 43.5903C71.3284 43.5903 69.779 42.5549 68.8991 44.6659C68.6422 45.1045 68.4584 45.5821 68.355 46.0799C68.3109 46.279 68.2489 46.4736 68.1695 46.6615C67.7788 47.3229 67.1942 47.848 66.4948 48.1657C64.6997 48.988 57.4493 58.031 57.3215 60.3726C57.2587 61.2867 57.1042 62.1921 56.8602 63.0752C56.2894 65.1549 56.1428 67.3282 56.4289 69.4657C56.5185 70.1565 56.667 70.8384 56.8727 71.504C57.6424 73.8431 58.1563 78.2079 58.1563 78.2079L58.9886 85.7842C58.9577 86.8299 59.003 87.8764 59.124 88.9155C58.2741 89.8857 54.862 93.9296 56.1657 95.0302C57.1685 95.8977 58.9235 95.7548 59.9087 95.5768C59.0789 97.6301 57.7727 101.2 57.5997 103.652C57.349 107.28 58.0284 112.086 59.104 113.931C60.1795 115.776 63.7646 120.51 63.7646 120.51C63.7646 120.51 63.5966 127.003 64.8777 129.362C66.1588 131.721 66.6753 136.615 66.6753 136.615C66.6753 136.615 67.8712 140.747 67.272 142.266C66.6728 143.785 68.3826 145.049 66.5876 146.059C64.7925 147.069 62.496 169.841 62.496 169.841C62.496 169.841 61.5709 184.766 62.496 185.525C62.5455 185.561 62.5984 185.592 62.654 185.618V190.632C62.654 190.632 62.0122 191.685 64.622 191.898C66.4095 192.041 71.4763 192.364 74.4823 192.552L76.8113 192.698C76.8113 192.698 82.3269 193.796 84.7637 192.698C87.2006 191.6 91.5203 191.625 90.8785 188.724C90.7934 188.329 90.6794 187.941 90.5375 187.563C89.833 185.763 88.6372 185.558 86.4335 185.056C86.3056 185.029 86.1828 185.004 86.0699 184.984C83.7484 184.58 82.9862 185.661 81.6851 184.254C80.5544 183.038 76.9543 181.677 75.7283 181.246C75.7584 181.155 75.796 181.068 75.8261 180.975C75.4789 180.916 75.156 180.758 74.896 180.521L78.2178 180.732L80.1959 180.854C80.1959 180.854 84.8841 181.79 86.9649 180.854C89.0458 179.919 92.7061 179.944 92.1596 177.48C92.0876 177.144 91.9912 176.814 91.8713 176.492C91.2721 174.963 90.2542 174.795 88.3814 174.371C88.2736 174.349 88.1734 174.326 88.0731 174.309C86.1 173.965 85.4532 174.883 84.3476 173.689C83.3999 172.671 80.409 171.531 79.3335 171.142C79.3335 170.586 78.5813 169.793 78.1075 168.999C77.5509 168.071 78.5788 164.824 78.5788 164.824L79.1655 151.354C79.3889 151.254 79.6252 151.187 79.8675 151.153C79.8675 151.153 82.5199 148.621 81.9207 145.924C81.7987 145.108 81.735 144.284 81.7302 143.459C82.6027 142.649 83.8035 141.454 84.1445 140.716C84.7011 139.516 84.1445 133.697 84.1445 133.697V111.446L88.582 111.895L92.6083 112.309L93.8343 112.434L97.8606 112.84L107.114 113.776L115.453 112.196L119.06 111.514L126.479 110.11V91.9591L134.158 90.6905ZM73.0833 30.5436L72.5669 30.4884C72.7374 30.496 72.9179 30.5285 73.0833 30.5436Z" fill="url(#paint0_linear)"/>
<path d="M116.16 102.476C113.653 106.064 104.64 104.164 104.64 104.164L97.6551 97.6276L96.7149 96.7426L98.2918 93.3932C98.2918 93.3932 98.7933 93.5311 99.6532 93.7768C104.168 95.088 118.276 99.4603 116.16 102.476Z" fill="#EFB7B9"/>
<path opacity="0.1" d="M99.6482 93.7768C99.3398 94.8498 98.4949 96.4568 97.6551 97.6276L96.7149 96.7426L98.2918 93.3932C98.2918 93.3932 98.7983 93.5311 99.6482 93.7768Z" fill="black"/>
<path d="M75.6932 56.0052C75.6932 56.0052 69.2551 58.8608 69.571 65.873C69.7983 70.3907 70.2905 74.8911 71.0451 79.351C71.0451 79.351 69.7289 89.9032 75.2093 92.6234C80.6898 95.3435 85.7616 97.5798 85.7616 97.5798C85.7616 97.5798 94.3357 98.5024 95.4012 98.8835C96.4667 99.2646 99.7961 93.4382 99.1819 92.5306C98.5676 91.6231 90.698 89.7202 89.6951 88.2059C88.6923 86.6917 86.3733 85.7565 86.3733 85.7565C86.3733 85.7565 83.979 84.3075 83.8161 82.9988C83.6531 81.6901 84.2849 80.7148 84.4454 80.1407C84.6058 79.5666 85.012 74.0235 85.012 74.0235C85.012 74.0235 87.7146 54.2929 75.6932 56.0052Z" fill="#DCE6F2"/>
<path opacity="0.1" d="M79.9427 79.0627C79.9427 79.0627 71.1103 80.5419 71.9652 83.6331C71.9652 83.6331 75.1717 80.2962 79.9427 79.0627Z" fill="black"/>
<path opacity="0.1" d="M80.0104 80.3137C80.0104 80.3137 75.1542 84.2774 76.1044 84.4805C77.0545 84.6835 80.0104 80.3137 80.0104 80.3137Z" fill="black"/>
<path opacity="0.1" d="M82.3444 81.6952C82.3444 81.6952 81.0433 84.3602 81.843 84.1797C82.6428 83.9992 82.3444 81.6952 82.3444 81.6952Z" fill="black"/>
<path opacity="0.1" d="M99.9741 94.0599L99.4376 93.907C99.5905 93.4056 99.6331 92.9994 99.5078 92.8114C98.8936 91.9038 91.0289 90.0035 90.0286 88.4867C89.0283 86.9699 86.7067 86.0373 86.7067 86.0373C86.7067 86.0373 84.3125 84.5882 84.1495 83.2795C83.9866 81.9709 84.6183 80.9956 84.7788 80.4215C84.9393 79.8474 85.3454 74.3018 85.3454 74.3018C85.3454 74.3018 88.0405 54.5737 76.0191 56.286C76.0191 56.286 69.581 59.1441 69.8944 66.1563C70.1217 70.674 70.6148 75.1745 71.371 79.6343C71.371 79.6343 70.0548 90.1865 75.5353 92.9067C81.0157 95.6268 86.0875 97.8631 86.0875 97.8631C86.0875 97.8631 94.6591 98.7832 95.7271 99.1668C96.1308 99.3122 96.8603 98.5626 97.5748 97.5322L97.981 97.9108L104.966 104.444C104.966 104.444 113.979 106.347 116.486 102.759C118.604 99.7409 104.499 95.3686 99.9741 94.0599Z" fill="black"/>
<path d="M71.9878 29.686C71.7423 29.734 71.5073 29.8248 71.2933 29.9543C71.0426 30.1624 71.0426 30.5184 70.9799 30.8293C70.9063 31.2617 70.7348 31.6716 70.4785 32.0276C70.7638 32.0486 71.05 32.0013 71.3134 31.8897C71.2705 32.2329 71.1863 32.5696 71.0627 32.8926C71.2189 32.8965 71.3729 32.8554 71.5063 32.774C71.6397 32.6926 71.7468 32.5745 71.8148 32.4338C71.9474 32.1513 72.0524 31.8566 72.1282 31.5538C72.1517 31.4632 72.1926 31.3781 72.2485 31.3031C72.4792 31.0298 72.9079 31.1527 73.2639 31.1878C73.5601 31.2127 73.8577 31.158 74.1257 31.0293C74.3937 30.9006 74.6224 30.7026 74.7882 30.4557C75.1667 29.8816 75.1893 28.4124 74.2867 28.257C73.3441 28.1016 72.7574 29.4002 71.9878 29.686Z" fill="#965D7B"/>
<g opacity="0.1">
<path opacity="0.1" d="M71.2682 30.2627C71.2908 30.1399 71.3059 30.012 71.3334 29.8892C71.0953 30.0972 71.0827 30.4507 71.02 30.7641C70.9885 30.9449 70.9389 31.1221 70.8721 31.2931C71.0695 30.9785 71.2041 30.6286 71.2682 30.2627Z" fill="black"/>
<path opacity="0.1" d="M71.3485 32.3336C71.4733 32.0111 71.5575 31.6742 71.5992 31.3308C71.3481 31.4365 71.0764 31.4836 70.8044 31.4687C70.7253 31.645 70.6287 31.813 70.5161 31.9701C70.8004 31.9921 71.0858 31.9457 71.3485 31.8347C71.3068 32.1781 71.2226 32.515 71.0978 32.8376C71.2539 32.8412 71.4078 32.7999 71.5412 32.7186C71.6745 32.6372 71.7817 32.5193 71.8499 32.3788C71.9123 32.2648 71.9628 32.1447 72.0003 32.0203C71.9267 32.1231 71.8285 32.2057 71.7145 32.2604C71.6006 32.3152 71.4747 32.3404 71.3485 32.3336Z" fill="black"/>
<path opacity="0.1" d="M73.5497 30.6288C73.1937 30.5937 72.7625 30.4708 72.5318 30.7441C72.4769 30.8197 72.4361 30.9046 72.4115 30.9948C72.3889 31.06 72.3688 31.1277 72.3513 31.1954C72.5895 31.0073 72.9756 31.1076 73.299 31.1402C73.5951 31.1644 73.8924 31.1093 74.1603 30.9807C74.4282 30.852 74.657 30.6544 74.8233 30.4081C74.8992 30.2864 74.9559 30.1536 74.9912 30.0145C74.8195 30.227 74.5983 30.3942 74.347 30.5012C74.0956 30.6083 73.8219 30.6521 73.5497 30.6288Z" fill="black"/>
</g>
<path d="M79.534 50.3918L83.3573 54.9898L82.8584 59.6304L78.2379 52.3975L79.534 50.3918Z" fill="#DCE6F2"/>
<path opacity="0.1" d="M83.3548 54.9898L82.886 59.3546L82.8559 59.6304L78.6866 53.102L78.2379 52.3975L78.3682 52.1944L79.5315 50.3918L79.7897 50.7027L83.3548 54.9898Z" fill="black"/>
<path d="M85.3404 44.1669C84.0467 44.538 82.8108 45.8116 81.7352 47.3584C81.0083 48.4257 80.3581 49.5433 79.7897 50.7028C79.4362 51.4098 79.1254 52.0892 78.8671 52.6809L78.6866 53.1021C78.2504 54.1325 78.0072 54.8219 78.0072 54.8219C78.0072 54.8219 68.1043 47.376 69.6712 46.8746C70.1977 46.7066 70.8897 45.5784 71.5741 44.1569L71.6593 43.9764C72.0931 43.0638 72.5193 42.046 72.8978 41.0883C73.6725 39.1202 74.2466 37.4104 74.2466 37.4104C74.2466 37.4104 89.289 43.0388 85.3404 44.1669Z" fill="#EFB7B9"/>
<path d="M91.2646 36.9917C91.2646 36.9917 93.551 41.1284 96.6222 40.5643C99.6933 40.0002 98.4298 38.343 98.4298 38.343L91.2646 36.9917Z" fill="#444053"/>
<path d="M86.8346 180.183C84.8089 181.108 80.2285 180.183 80.2285 180.183L78.298 180.062C75.791 179.902 71.5942 179.631 70.11 179.511C67.9439 179.333 68.4754 178.445 68.4754 178.445V173.083L78.985 170.42C78.985 170.42 83.1392 171.842 84.2774 173.083C85.3579 174.266 85.9897 173.356 87.9176 173.697C88.0129 173.714 88.1132 173.734 88.2185 173.759C90.0486 174.178 91.0414 174.344 91.6281 175.86C91.746 176.179 91.8407 176.506 91.9114 176.838C92.4529 179.28 88.8578 179.262 86.8346 180.183Z" fill="#A36468"/>
<path opacity="0.1" d="M91.6281 175.86C91.2515 176.096 90.8556 176.299 90.4448 176.467C89.0659 177.096 87.7547 177.864 86.3608 178.458C84.9668 179.052 83.4651 179.476 81.9558 179.363C81.1661 179.305 80.3588 179.112 79.6042 179.338C79.1375 179.518 78.698 179.762 78.298 180.062C75.791 179.902 71.5942 179.631 70.11 179.511C67.9439 179.333 68.4754 178.445 68.4754 178.445V177.818C68.5531 177.818 68.6408 177.796 68.7411 177.788C69.26 177.78 69.7766 177.857 70.2704 178.016C71.3585 178.312 72.4415 178.603 73.5296 178.894C73.6191 178.556 73.7764 178.24 73.9919 177.965C74.2074 177.69 74.4766 177.462 74.7831 177.294C75.4042 176.965 76.1012 176.805 76.8038 176.831C78.4911 176.853 80.0881 177.653 81.7728 177.733C82.2438 177.776 82.718 177.697 83.1492 177.502C83.3799 177.387 83.5829 177.219 83.8086 177.091C84.1697 176.917 84.5512 176.788 84.9443 176.708C86.0491 176.433 87.1338 176.083 88.1909 175.66C88.4918 175.542 88.8427 175.329 88.8026 175.008C88.75 174.582 88.0806 174.532 87.9051 174.141C87.8741 174.07 87.8598 173.993 87.8633 173.916C87.8668 173.839 87.888 173.764 87.9252 173.697C88.0204 173.714 88.1207 173.734 88.226 173.759C90.0486 174.178 91.0414 174.344 91.6281 175.86Z" fill="black"/>
<path d="M84.6936 191.916C82.3118 193.004 76.9217 191.916 76.9217 191.916L74.6528 191.783C71.7145 191.595 66.7656 191.281 65.0181 191.133C62.4685 190.923 63.0952 189.88 63.0952 189.88V183.56L75.4626 180.426C75.4626 180.426 80.3513 182.098 81.6901 183.56C82.9612 184.951 83.6957 183.881 85.9747 184.282C86.0875 184.302 86.2053 184.327 86.3282 184.354C88.4817 184.856 89.65 185.044 90.3395 186.829C90.479 187.204 90.5905 187.588 90.6729 187.98C91.2947 190.853 87.0753 190.83 84.6936 191.916Z" fill="#A36468"/>
<path opacity="0.1" d="M90.3344 186.829C89.8914 187.106 89.426 187.345 88.943 187.543C87.321 188.283 85.7766 189.185 84.137 189.885C82.4974 190.584 80.7299 191.081 78.9524 190.95C78.0248 190.883 77.0746 190.65 76.1946 190.92C75.6432 191.135 75.1243 191.425 74.6528 191.783C71.7145 191.595 66.7656 191.281 65.0181 191.133C62.4685 190.923 63.0952 189.88 63.0952 189.88V189.143C63.199 189.126 63.3036 189.114 63.4086 189.108C64.0194 189.097 64.6277 189.187 65.2087 189.376L69.042 190.409C69.1488 190.01 69.3357 189.638 69.5913 189.314C69.8469 188.991 70.1659 188.722 70.5287 188.526C71.2594 188.137 72.0804 187.948 72.9079 187.98C74.8935 188.007 76.7712 188.947 78.7543 189.043C79.3066 189.093 79.8626 189.001 80.3689 188.774C80.6421 188.636 80.8703 188.438 81.1461 188.29C81.5701 188.083 82.0193 187.931 82.4823 187.839C83.7752 187.513 85.045 187.101 86.283 186.606C86.6365 186.465 87.0502 186.215 87.0026 185.839C86.9399 185.337 86.1527 185.277 85.9446 184.816C85.9095 184.732 85.8936 184.642 85.8979 184.552C85.9022 184.462 85.9268 184.374 85.9697 184.294C86.0825 184.314 86.2003 184.339 86.3231 184.367C88.4767 184.848 89.645 185.044 90.3344 186.829Z" fill="black"/>
<path d="M79.3034 148.546L78.634 164.298C78.634 164.298 77.6312 167.514 78.1752 168.435C78.7192 169.355 79.6368 170.272 79.3034 170.816C78.9699 171.36 74.9586 177.242 73.6625 174.986C72.3663 172.729 71.0877 162.952 71.0877 162.952L72.2836 150.875L79.3034 148.546Z" fill="#444053"/>
<path d="M82.2065 109.3L84.0668 111.787V133.418C84.0668 133.418 84.6108 139.185 84.0668 140.375C83.5227 141.566 80.765 143.948 80.765 143.948L78.4459 132.039L78.9474 119.441L82.2065 109.3Z" fill="#444053"/>
<path opacity="0.1" d="M79.3034 148.546L78.634 164.298C78.634 164.298 77.6312 167.514 78.1752 168.435C78.7192 169.355 79.6368 170.272 79.3034 170.816C78.9699 171.36 74.9586 177.242 73.6625 174.986C72.3663 172.729 71.0877 162.952 71.0877 162.952L72.2836 150.875L79.3034 148.546Z" fill="black"/>
<path opacity="0.1" d="M82.2065 109.3L84.0668 111.787V133.418C84.0668 133.418 84.6108 139.185 84.0668 140.375C83.5227 141.566 80.765 143.948 80.765 143.948L78.4459 132.039L78.9474 119.441L82.2065 109.3Z" fill="black"/>
<path d="M84.0668 100.074V111.775L81.9784 120.883C81.9784 120.883 81.309 142.862 81.8932 145.535C82.4773 148.207 79.8875 150.717 79.8875 150.717C79.8875 150.717 78.3833 150.885 78.3833 152.053C78.3833 153.222 75.8762 156.566 75.8762 156.566L75.959 163.084C75.959 163.084 77.047 175.286 75.3748 177.625C73.7026 179.964 75.959 180.3 75.959 180.3C73.8706 187.152 63.8423 185.565 62.9373 184.813C62.0322 184.061 62.9373 169.269 62.9373 169.269C62.9373 169.269 65.1786 146.706 66.9335 145.703C68.6885 144.7 67.0188 143.446 67.6029 141.942C68.1871 140.438 67.0188 136.344 67.0188 136.344C67.0188 136.344 66.5174 131.495 65.2638 129.156C64.0103 126.817 64.1758 120.382 64.1758 120.382C64.1758 120.382 60.6659 115.701 59.6229 113.863C58.58 112.025 57.9081 107.262 58.1588 103.667C58.3293 101.238 59.6054 97.7001 60.4152 95.6644C60.8038 94.6891 61.0846 94.0574 61.0846 94.0574L61.3227 94.12L75.0163 97.7051L84.0668 100.074Z" fill="#444053"/>
<path opacity="0.1" d="M85.3404 44.1669C84.0467 44.538 82.8108 45.8115 81.7352 47.3584H81.4544C79.878 47.3595 78.3291 46.9444 76.9645 46.1551C75.5998 45.3658 74.4677 44.2303 73.6825 42.8632C73.3544 42.2968 73.0904 41.6956 72.8953 41.0707C73.67 39.1026 74.2441 37.3928 74.2441 37.3928C74.2441 37.3928 89.289 43.0387 85.3404 44.1669Z" fill="black"/>
<path d="M90.4172 37.8994C90.4194 39.2712 90.1067 40.6252 89.5032 41.857C88.8997 43.0889 88.0215 44.1658 86.9362 45.0048C85.851 45.8438 84.5876 46.4225 83.2434 46.6963C81.8993 46.9701 80.5102 46.9318 79.1832 46.5841C77.8562 46.2365 76.6267 45.5889 75.5894 44.6913C74.5521 43.7936 73.7347 42.6699 73.2002 41.4065C72.6656 40.1432 72.4282 38.774 72.5062 37.4045C72.5842 36.0349 72.9755 34.7016 73.6499 33.5071C73.9216 33.0217 74.239 32.5634 74.5976 32.1382C75.1888 31.4339 75.8837 30.8235 76.6584 30.3281C77.967 29.4965 79.4689 29.0187 81.0174 28.9411C82.5658 28.8636 84.108 29.1891 85.493 29.8858C86.8781 30.5825 88.0588 31.6266 88.9196 32.9161C89.7805 34.2055 90.2922 35.6962 90.4046 37.2426C90.4097 37.4632 90.4172 37.6813 90.4172 37.8994Z" fill="#EFB7B9"/>
<path opacity="0.1" d="M82.886 59.3549L82.8559 59.6307L78.6866 53.1123C78.2504 54.1427 78.0072 54.8321 78.0072 54.8321C78.0072 54.8321 68.1043 47.3761 69.6712 46.8747C70.1977 46.7068 70.8897 45.5786 71.5741 44.1571L71.6593 43.9766C72.3864 46.1427 76.6108 50.4724 78.3682 52.2072C78.5713 52.4078 78.7393 52.5733 78.8696 52.6936L79.1379 52.9443L79.2783 53.0847C79.9176 53.7441 82.6152 56.6523 82.886 59.3549Z" fill="black"/>
<path d="M86.0022 81.472L85.546 96.1559L85.4657 98.7707C85.4657 98.7707 80.0605 98.2693 75.0163 97.7178C70.9549 97.274 67.1266 96.7952 66.5374 96.5144C65.7853 96.1609 64.1733 95.8876 62.9022 95.7146C61.9194 95.5818 61.1472 95.5116 61.1472 95.5116C61.1472 95.5116 60.8589 95.5968 60.4152 95.677C59.4474 95.8525 57.7477 95.9954 56.7574 95.1355C55.4913 94.0349 58.8182 90.0361 59.648 89.0759L59.831 88.8679L59.5176 85.9722L58.7028 78.4635C58.7028 78.4635 58.2014 74.1389 57.4493 71.8198C57.2482 71.1605 57.1031 70.4854 57.0156 69.8016C56.7361 67.6836 56.8793 65.5312 57.4368 63.4688C57.675 62.5925 57.8261 61.6948 57.8881 60.7888C58.0134 58.4697 65.0959 49.507 66.8508 48.6922C67.6403 48.324 68.2755 47.6906 68.6459 46.9021C68.7681 46.6542 68.8599 46.3924 68.9191 46.1224C69.6712 42.8633 71.5741 44.1569 71.5741 44.1569C72.0329 46.7066 79.1354 53.4556 79.1354 53.4556L79.2758 53.596C79.9803 54.318 83.1191 57.7076 82.896 60.6007C82.8514 61.6775 83.0122 62.753 83.3698 63.7697C84.8145 68.3187 85.645 73.0403 85.8393 77.8092L86.0022 81.472Z" fill="#DCE6F2"/>
<path opacity="0.1" d="M75.9389 64.0354C75.9389 64.0354 74.1839 68.2974 72.8677 68.9868C71.5515 69.6763 76.5657 70.4409 75.9389 64.0354Z" fill="black"/>
<path opacity="0.1" d="M77.2551 71.9952C77.2551 71.9952 73.2438 72.4967 73.2438 73.2488C73.2438 74.0009 77.2551 71.9952 77.2551 71.9952Z" fill="black"/>
<path opacity="0.1" d="M81.4544 76.8843C81.4544 76.8843 75.6255 89.2942 73.9959 89.6703C72.3663 90.0464 81.4544 76.8843 81.4544 76.8843Z" fill="black"/>
<path opacity="0.1" d="M79.0251 54.0848L74.204 56.1807L68.3851 47.3909C68.5074 47.143 68.5991 46.8812 68.6584 46.6112C69.4105 43.352 71.3134 44.6457 71.3134 44.6457C71.7722 47.1954 78.8747 53.9444 78.8747 53.9444L79.0251 54.0848Z" fill="black"/>
<path d="M79.2758 53.5834L74.4547 55.6793L68.6358 46.8896C68.7581 46.6417 68.8498 46.3799 68.9091 46.1099C69.6612 42.8507 71.5641 44.1443 71.5641 44.1443C72.0229 46.694 79.1254 53.443 79.1254 53.443L79.2758 53.5834Z" fill="#DCE6F2"/>
<path opacity="0.1" d="M85.4657 98.7708C85.4657 98.7708 80.0605 98.2694 75.0163 97.7178L84.0668 100.087V102.845C83.6707 103.203 83.3272 103.389 83.1041 103.294C82.0611 102.855 73.5497 101.476 73.5497 101.476C73.5497 101.476 68.6057 98.9689 63.2707 95.9604C63.1412 95.8886 63.0157 95.81 62.8946 95.7247C62.2726 95.3024 61.7366 94.7655 61.3152 94.1428C60.3299 92.7163 59.8486 90.8836 59.6405 89.086C59.5235 88.0558 59.4799 87.0186 59.5101 85.9823C59.536 84.8071 59.6432 83.6352 59.831 82.4749C59.3151 77.9808 59.0639 73.4603 59.0789 68.9368C59.1416 61.917 65.7226 59.4099 65.7226 59.4099C77.8192 58.3444 74.0686 77.8995 74.0686 77.8995C74.0686 77.8995 73.3691 83.4151 73.1786 83.9791C72.9881 84.5432 72.3036 85.4834 72.3964 86.7996C72.4892 88.1158 74.8007 89.6902 74.8007 89.6902C74.8007 89.6902 77.057 90.7482 77.9872 92.3151C78.6641 93.4709 83.0614 95.0378 85.5459 96.1559L85.4657 98.7708Z" fill="black"/>
<path opacity="0.1" d="M89.5171 32.3336C89.5218 32.7465 89.4362 33.1555 89.2664 33.5319C89.1379 33.8391 88.9888 34.1373 88.8202 34.4244C88.5563 34.9526 88.1818 35.4178 87.7221 35.7883C87.143 36.202 86.4109 36.3173 85.7164 36.4853C85.022 36.6532 84.2999 36.9215 83.9038 37.5131C83.6891 37.8935 83.5456 38.3098 83.4801 38.7416C83.4137 39.1731 83.2414 39.5813 82.9787 39.93C82.8419 40.1002 82.6524 40.2201 82.4401 40.2709C82.2277 40.3218 82.0045 40.3006 81.8054 40.2107C81.5957 40.0694 81.4367 39.8647 81.3516 39.6266C81.0658 38.9823 80.9931 38.2678 80.8778 37.5733C80.7625 36.8789 80.5995 36.1643 80.1733 35.6053C79.7471 35.0462 78.9925 34.6777 78.3231 34.8958C78.0991 34.982 77.8947 35.1126 77.7224 35.2798C77.5501 35.447 77.4133 35.6472 77.3203 35.8685C77.135 36.3116 77.0078 36.7767 76.9417 37.2524C76.6308 38.9539 76.264 40.6453 75.8411 42.3267C75.8282 42.3956 75.7999 42.4608 75.7584 42.5172C75.6917 42.5837 75.6018 42.6215 75.5077 42.6225C74.9461 42.6977 74.4071 42.3041 73.8405 42.3468C73.7821 42.3507 73.7242 42.3599 73.6675 42.3743C72.7514 40.7823 72.3469 38.947 72.5088 37.1174C72.6707 35.2877 73.3912 33.552 74.5725 32.1455L74.6177 32.133C74.9946 31.9992 75.3371 31.7834 75.6205 31.5012C75.9824 31.139 76.3176 30.7511 76.6233 30.3404L76.8239 30.0897C77.4001 29.3955 78.0565 28.7719 78.7794 28.232C78.9767 28.0704 79.203 27.9478 79.4463 27.871C79.6544 27.8304 79.8677 27.8237 80.0781 27.8509C80.9439 27.9549 81.8167 27.9876 82.6879 27.9487C83.2949 27.8533 83.9067 27.7914 84.5206 27.7632C86.1075 27.8083 87.4613 28.929 88.4642 30.1574C89.0032 30.7867 89.4845 31.5112 89.5171 32.3336Z" fill="black"/>
<path d="M72.4791 33.7451C72.1307 34.3167 71.5014 34.7053 71.2657 35.332C70.9198 36.2421 71.5039 37.3753 70.9674 38.1876C70.7894 38.4608 70.4961 38.6639 70.3958 38.9773C70.2253 39.5063 70.6916 40.0704 70.5713 40.6144C70.4509 41.1584 69.7339 41.6172 69.9245 42.1487C70.0371 42.3805 70.2346 42.5601 70.476 42.6501C70.8559 42.8681 71.2931 42.9651 71.7295 42.9284C72.414 42.8156 72.9229 42.1437 73.6174 42.0936C74.1814 42.0535 74.7205 42.4446 75.282 42.3719C75.3762 42.3686 75.4656 42.3301 75.5328 42.2641C75.5754 42.2082 75.6037 42.1428 75.6155 42.0735C76.0367 40.3938 76.4044 38.7024 76.7186 36.9992C76.7826 36.5234 76.9091 36.0581 77.0946 35.6153C77.1884 35.3945 77.3255 35.1946 77.4977 35.0275C77.6699 34.8605 77.8739 34.7296 78.0975 34.6426C78.7669 34.427 79.519 34.793 79.9477 35.3521C80.3764 35.9112 80.5394 36.6257 80.6547 37.3201C80.77 38.0146 80.8427 38.7291 81.126 39.3734C81.2121 39.6124 81.3719 39.8178 81.5823 39.9601C81.9584 40.1782 82.4648 40.0052 82.7531 39.6793C83.0172 39.3305 83.1896 38.9211 83.2545 38.4884C83.3199 38.0574 83.4635 37.6419 83.6782 37.2625C84.0743 36.6708 84.7989 36.4025 85.4908 36.2346C86.1828 36.0666 86.9123 35.9488 87.4965 35.5351C87.9555 35.165 88.33 34.7008 88.5945 34.1738C88.9656 33.5269 89.3116 32.825 89.2815 32.0804C89.2489 31.2681 88.7675 30.5435 88.2536 29.9118C87.2508 28.6833 85.8944 27.5626 84.3075 27.52C83.6935 27.5457 83.0815 27.6076 82.4748 27.7055C81.6036 27.7447 80.7306 27.7112 79.865 27.6053C79.6545 27.5801 79.4413 27.5877 79.2332 27.6278C78.9897 27.7022 78.7637 27.825 78.5688 27.9888C77.8453 28.5279 77.188 29.1506 76.6108 29.8441C76.2386 30.3376 75.835 30.8065 75.4024 31.248C75.1189 31.5307 74.7764 31.7472 74.3996 31.8823C74.1489 31.9525 73.8982 31.9024 73.66 31.9801C72.9204 32.2132 72.8226 33.1785 72.4791 33.7451Z" fill="#965D7B"/>
<path opacity="0.1" d="M96.6222 40.5618C94.6165 40.9303 92.9543 39.3082 92.0342 38.1249C91.7516 37.7655 91.4945 37.3869 91.2646 36.9917L98.149 38.2904L98.4272 38.343C98.4272 38.343 99.6933 40.0002 96.6222 40.5618Z" fill="black"/>
<g opacity="0.1">
<path opacity="0.1" d="M70.5713 39.8973C70.5993 39.5694 70.5495 39.2395 70.4259 38.9346C70.4259 38.9596 70.4033 38.9847 70.3958 39.0098C70.288 39.3457 70.4334 39.6942 70.5261 40.0427C70.5461 39.9959 70.5612 39.9472 70.5713 39.8973Z" fill="black"/>
<path opacity="0.1" d="M71.168 35.7933C71.1422 36.14 71.1489 36.4883 71.188 36.8338C71.2137 36.4871 71.207 36.1388 71.168 35.7933Z" fill="black"/>
<path opacity="0.1" d="M88.5795 33.4492C88.3156 33.9774 87.9411 34.4426 87.4814 34.813C86.9023 35.2267 86.1727 35.342 85.4758 35.51C84.7788 35.678 84.0593 35.9462 83.6632 36.5379C83.4488 36.9184 83.3053 37.3346 83.2395 37.7664C83.1742 38.1989 83.0018 38.6083 82.7381 38.9572C82.4497 39.2831 81.9433 39.4586 81.5673 39.238C81.3568 39.0958 81.1971 38.8903 81.111 38.6514C80.8277 38.007 80.7525 37.295 80.6396 36.5981C80.5268 35.9011 80.3588 35.1891 79.9326 34.63C79.5064 34.071 78.7518 33.7024 78.0824 33.9205C77.8586 34.0072 77.6545 34.1379 77.4822 34.305C77.3099 34.4721 77.173 34.6722 77.0796 34.8933C76.894 35.3361 76.7676 35.8014 76.7036 36.2772C76.391 37.9803 76.0233 39.6717 75.6004 41.3515C75.5887 41.4207 75.5603 41.4861 75.5177 41.542C75.4506 41.6081 75.3611 41.6465 75.267 41.6498C74.7054 41.7225 74.1664 41.3314 73.6023 41.3715C72.9079 41.4217 72.3989 42.0936 71.7145 42.2039C71.2779 42.243 70.84 42.1458 70.461 41.9256C70.2867 41.8506 70.1303 41.7395 70.0022 41.5997C69.9435 41.6837 69.9047 41.7799 69.8886 41.8811C69.8725 41.9823 69.8797 42.0858 69.9094 42.1838C70.0198 42.4172 70.2181 42.5975 70.461 42.6852C70.84 42.9054 71.2779 43.0027 71.7145 42.9635C72.3989 42.8532 72.9079 42.1813 73.6023 42.1312C74.1664 42.0911 74.7054 42.4822 75.267 42.4094C75.3611 42.4062 75.4506 42.3677 75.5177 42.3016C75.5603 42.2458 75.5887 42.1804 75.6004 42.1111C76.0216 40.4397 76.3893 38.7483 76.7036 37.0368C76.7676 36.561 76.894 36.0957 77.0796 35.6529C77.173 35.4318 77.3099 35.2318 77.4822 35.0647C77.6545 34.8976 77.8586 34.7668 78.0824 34.6802C78.7518 34.4621 79.5039 34.8306 79.9326 35.3897C80.3614 35.9487 80.5243 36.6633 80.6396 37.3577C80.755 38.0522 80.8277 38.7667 81.111 39.411C81.1971 39.65 81.3568 39.8554 81.5673 39.9977C81.9433 40.2158 82.4497 40.0428 82.7381 39.7169C83.0018 39.3679 83.1742 38.9585 83.2395 38.526C83.3053 38.0943 83.4488 37.6781 83.6632 37.2975C84.0593 36.7059 84.7838 36.4401 85.4758 36.2697C86.1677 36.0992 86.8973 35.9864 87.4814 35.5727C87.9411 35.2022 88.3156 34.737 88.5795 34.2088C88.9505 33.5645 89.2965 32.8626 89.2664 32.118C89.2615 32.0222 89.2515 31.9268 89.2364 31.8322C89.1154 32.406 88.893 32.9536 88.5795 33.4492Z" fill="black"/>
</g>
<path opacity="0.1" d="M89.2765 33.5245C89.9194 34.6676 90.3004 35.9392 90.3921 37.2475C88.1583 35.994 86.0574 34.6176 84.9969 34.1387C83.1492 33.3039 76.2397 33.4292 73.6424 33.507C73.9141 33.0216 74.2314 32.5633 74.5901 32.1381C75.1836 31.4332 75.881 30.8228 76.6584 30.328C77.6879 29.6746 78.8399 29.2381 80.0438 29.045C81.2478 28.8519 82.4785 28.9064 83.6606 29.2052C84.8428 29.5039 85.9517 30.0405 86.9194 30.7823C87.8871 31.5241 88.6934 32.4555 89.289 33.5195L89.2765 33.5245Z" fill="black"/>
<path opacity="0.1" d="M97.2489 39.4988C96.043 39.8698 94.075 39.1528 92.0342 38.1249C91.7516 37.7655 91.4945 37.3869 91.2646 36.9917L98.149 38.2904C98.6052 38.6012 98.7206 39.045 97.2489 39.4988Z" fill="black"/>
<path d="M81.9884 24.8325C81.9884 24.8325 75.4074 24.4565 73.5572 28.029L73.2588 31.1955L72.7574 31.1403L72.6571 33.2939C72.6571 33.2939 82.7155 32.8551 85.0044 33.888C87.2934 34.921 94.4059 40.1256 97.2564 39.2481C100.107 38.3707 97.0057 37.5559 97.0057 37.5559C97.0057 37.5559 93.0822 35.8937 93.0822 34.59C93.0822 33.2864 92.1094 26.3995 81.9884 24.8325Z" fill="#444053"/>
<path opacity="0.1" d="M69.2952 142.213C69.2952 142.213 73.4945 146.287 75.3121 145.974C75.3121 145.974 70.1727 145.535 69.2952 142.213Z" fill="black"/>
<path opacity="0.1" d="M68.4177 144.101C68.4177 144.101 68.7938 146.197 69.7966 145.991C70.7994 145.786 68.4177 144.101 68.4177 144.101Z" fill="black"/>
<path opacity="0.1" d="M74.9987 179.13C74.9987 179.13 69.0369 183.768 70.0423 183.893C71.0476 184.018 74.9987 179.13 74.9987 179.13Z" fill="black"/>
<path d="M82.9737 87.0779L102.278 83.9365V102.213L83.9364 101.253L82.9737 87.0779Z" fill="#060110"/>
<path opacity="0.05" d="M82.9737 87.0779L102.278 83.9365V102.213L83.9364 101.253L82.9737 87.0779Z" fill="black"/>
<path d="M102.278 83.9365L125.428 85.6689L124.147 101.574L102.278 102.213V83.9365Z" fill="#060110"/>
<path opacity="0.1" d="M102.278 83.9365L125.428 85.6689L124.147 101.574L102.278 102.213V83.9365Z" fill="black"/>
<path d="M109.396 78.3582L102.278 83.9364L125.428 85.6687L129.211 79.9602L109.396 78.3582Z" fill="#060110"/>
<path d="M75.984 80.9856L93.363 78.8696L102.278 83.9364L82.9737 87.0777L75.984 80.9856Z" fill="#060110"/>
<path d="M106.51 88.6823V113.67L97.467 112.743L93.5335 112.341L92.3351 112.216L88.404 111.812L82.9737 111.256V87.0778L102.276 88.3915L106.51 88.6823Z" fill="#060110"/>
<path d="M125.428 85.6688V110.037L118.18 111.429L114.655 112.106L106.51 113.67V88.6823L125.428 85.6688Z" fill="#060110"/>
<path opacity="0.05" d="M125.428 85.6688V110.037L118.18 111.429L114.655 112.106L106.51 113.67V88.6823L125.428 85.6688Z" fill="black"/>
<path d="M75.984 92.3376L82.9737 87.0778L106.51 88.6823L103.045 94.5187L75.984 92.3376Z" fill="#060110"/>
<path opacity="0.1" d="M75.984 92.3376L82.9737 87.0778L106.51 88.6823L103.045 94.5187L75.984 92.3376Z" fill="white"/>
<path d="M125.428 85.6688L106.51 88.6823L112.667 94.1979L132.932 90.7983L125.428 85.6688Z" fill="#060110"/>
<path opacity="0.1" d="M125.428 85.6688L106.51 88.6823L112.667 94.1979L132.932 90.7983L125.428 85.6688Z" fill="white"/>
<path opacity="0.1" d="M118.18 111.429L114.655 112.106V106.899L117.957 106.066L118.18 111.429Z" fill="white"/>
<path opacity="0.1" d="M97.467 109.298V112.743L93.5335 112.341V109.298H97.467Z" fill="white"/>
<path opacity="0.1" d="M92.3351 110.383V112.216L88.404 111.812V110.383H92.3351Z" fill="white"/>
<path opacity="0.1" d="M104.143 107.47C101.448 110.917 92.5482 108.536 92.5482 108.536L85.9346 101.636L85.037 100.701L86.792 97.442C86.792 97.442 87.2934 97.6075 88.1307 97.8983C92.5632 99.4477 106.412 104.57 104.143 107.47Z" fill="black"/>
<path d="M103.893 106.969C101.198 110.416 92.2975 108.034 92.2975 108.034L85.6838 101.135L84.7863 100.2L86.5413 96.9407C86.5413 96.9407 87.0427 97.1061 87.88 97.397C92.3125 98.9463 106.162 104.068 103.893 106.969Z" fill="#EFB7B9"/>
<path opacity="0.1" d="M87.87 97.397C87.504 98.4499 86.5739 100.009 85.6738 101.135L84.7763 100.2L86.5312 96.9407C86.5312 96.9407 87.0352 97.1061 87.87 97.397Z" fill="black"/>
<path d="M65.9733 58.407C65.9733 58.407 59.3923 60.914 59.3296 67.9338C59.3146 72.4574 59.5658 76.9779 60.0817 81.4719C60.0817 81.4719 58.2014 91.9389 63.5289 94.9474C68.8564 97.9559 73.8079 100.463 73.8079 100.463C73.8079 100.463 82.3194 101.842 83.3648 102.281C84.4103 102.719 88.043 97.0784 87.4789 96.1383C86.9148 95.1981 79.1655 92.8791 78.2454 91.3122C77.3253 89.7453 75.0589 88.6898 75.0589 88.6898C75.0589 88.6898 72.7474 87.1128 72.6546 85.7966C72.5619 84.4804 73.2438 83.5403 73.4368 82.9762C73.6299 82.4121 74.3294 76.8966 74.3294 76.8966C74.3294 76.8966 78.0699 57.3289 65.9733 58.407Z" fill="#DCE6F2"/>
<path opacity="0.1" d="M68.9818 81.6477C68.9818 81.6477 60.0817 82.6505 60.7712 85.7844C60.7712 85.7844 64.1532 82.623 68.9818 81.6477Z" fill="black"/>
<path opacity="0.1" d="M68.9818 82.9011C68.9818 82.9011 63.9301 86.599 64.8577 86.8497C65.7853 87.1005 68.9818 82.9011 68.9818 82.9011Z" fill="black"/>
<path opacity="0.1" d="M71.2382 84.4054C71.2382 84.4054 69.7966 86.9977 70.6114 86.8623C71.4262 86.7269 71.2382 84.4054 71.2382 84.4054Z" fill="black"/>
<path d="M163.904 28.177C163.904 28.177 154.377 27.6029 155.49 34.2867C155.49 34.2867 155.267 35.4675 156.338 36.0041C156.338 36.0041 156.355 35.5026 157.316 35.6756C157.658 35.7332 158.005 35.75 158.351 35.7258C158.82 35.6945 159.265 35.5105 159.62 35.2018C159.62 35.2018 162.3 34.0962 163.343 29.7138C163.343 29.7138 164.115 28.7561 164.095 28.5105L162.485 29.1999C162.485 29.1999 163.034 30.3607 162.601 31.3259C162.601 31.3259 162.55 29.2425 162.239 29.2901C162.177 29.2901 161.405 29.6938 161.405 29.6938C161.405 29.6938 162.35 31.7145 161.635 33.1861C161.635 33.1861 161.906 30.6941 161.109 29.8392L159.976 30.5011C159.976 30.5011 161.081 32.5894 160.332 34.2942C160.332 34.2942 160.525 31.6794 159.737 30.6615L158.71 31.4613C158.71 31.4613 159.75 33.5221 159.116 34.9361C159.116 34.9361 159.033 31.8925 158.486 31.6618C158.486 31.6618 157.589 32.4541 157.454 32.78C157.454 32.78 158.163 34.2842 157.722 35.0639C157.722 35.0639 157.451 33.0357 157.22 33.0257C157.22 33.0257 156.325 34.3695 156.233 35.282C156.276 34.4313 156.541 33.6067 157.002 32.8903C156.486 32.9879 156.011 33.2346 155.633 33.5998C155.633 33.5998 155.771 32.6496 157.223 32.5669C157.223 32.5669 157.975 31.5465 158.161 31.4838C158.161 31.4838 156.716 31.3635 155.841 31.7521C155.841 31.7521 156.611 30.8571 158.426 31.2507L159.429 30.4233C159.429 30.4233 157.529 30.1726 156.721 30.4509C156.721 30.4509 157.649 29.6587 159.702 30.2353L160.805 29.576C160.805 29.576 159.186 29.225 158.221 29.3528C158.221 29.3528 159.239 28.8038 161.129 29.398L161.919 29.0445C161.919 29.0445 160.73 28.8113 160.384 28.7737C160.038 28.7361 160.018 28.6408 160.018 28.6408C160.77 28.5157 161.542 28.6025 162.247 28.8915C162.247 28.8915 163.939 28.2823 163.904 28.177Z" fill="#060110"/>
<path opacity="0.1" d="M192.851 61.6061C192.851 61.6061 183.324 61.032 184.437 67.7158C184.437 67.7158 184.214 68.8966 185.284 69.4331C185.284 69.4331 185.302 68.9317 186.265 69.1047C186.607 69.1623 186.954 69.1791 187.3 69.1549C187.763 69.1213 188.203 68.9383 188.554 68.6334C188.554 68.6334 191.236 67.5253 192.279 63.1429C192.279 63.1429 193.049 62.1877 193.019 61.942L191.409 62.629C191.409 62.629 191.958 63.7897 191.527 64.755C191.527 64.755 191.474 62.6716 191.166 62.7192C191.103 62.7192 190.329 63.1229 190.329 63.1229C190.329 63.1229 191.276 65.1461 190.562 66.6152C190.562 66.6152 190.833 64.1232 190.033 63.2683L188.912 63.9226C188.912 63.9226 190.018 66.011 189.268 67.7158C189.268 67.7158 189.461 65.1009 188.674 64.0831L187.649 64.8853C187.649 64.8853 188.686 66.9436 188.055 68.3576C188.055 68.3576 187.972 65.314 187.425 65.0834C187.425 65.0834 186.528 65.8756 186.39 66.2015C186.39 66.2015 187.102 67.7058 186.661 68.4855C186.661 68.4855 186.39 66.4573 186.159 66.4472C186.159 66.4472 185.264 67.791 185.172 68.7036C185.216 67.8527 185.483 67.0283 185.944 66.3118C185.427 66.4097 184.951 66.6563 184.572 67.0213C184.572 67.0213 184.713 66.0712 186.164 65.9884C186.164 65.9884 186.904 64.9681 187.102 64.9054C187.102 64.9054 185.658 64.785 184.783 65.1736C184.783 65.1736 185.553 64.2786 187.365 64.6848L188.368 63.8574C188.368 63.8574 186.465 63.6067 185.66 63.885C185.66 63.885 186.588 63.0928 188.641 63.6694L189.744 63.01C189.744 63.01 188.122 62.6616 187.157 62.7869C187.157 62.7869 188.178 62.2379 190.068 62.832L190.858 62.4785C190.858 62.4785 189.669 62.2454 189.321 62.2078C188.972 62.1702 188.955 62.0749 188.955 62.0749C189.707 61.9497 190.48 62.0365 191.186 62.3256C191.186 62.3256 192.881 61.7114 192.851 61.6061Z" fill="#060110"/>
<path opacity="0.1" d="M134.975 55.6718C134.975 55.6718 137.169 46.3731 130.39 46.3405C130.39 46.3405 129.264 45.9193 128.555 46.882C128.555 46.882 129.038 46.9848 128.71 47.9024C128.596 48.2269 128.521 48.5634 128.484 48.9052C128.436 49.3712 128.541 49.8404 128.783 50.2415C128.783 50.2415 129.417 53.0745 133.546 54.8495C133.546 54.8495 134.358 55.7721 134.604 55.7821L134.203 54.0798C134.203 54.0798 132.965 54.4233 132.087 53.8291C132.087 53.8291 134.15 54.1325 134.153 53.8291C134.153 53.7664 133.902 52.9366 133.902 52.9366C133.902 52.9366 131.749 53.5232 130.42 52.568C130.42 52.568 132.829 53.26 133.809 52.6207L133.358 51.3872C133.358 51.3872 131.102 52.1218 129.557 51.0914C129.557 51.0914 132.102 51.7282 133.24 51.1265L132.626 49.9783C132.626 49.9783 130.42 50.6501 129.134 49.7852C129.134 49.7852 132.142 50.2214 132.468 49.725C132.468 49.725 131.841 48.7047 131.543 48.5141C131.543 48.5141 129.949 48.9604 129.247 48.3913C129.247 48.3913 131.29 48.469 131.337 48.2534C131.337 48.2534 130.167 47.1428 129.274 46.8921C130.106 47.0814 130.874 47.4841 131.503 48.0603C131.494 47.5349 131.332 47.0235 131.037 46.5887C131.037 46.5887 131.949 46.8896 131.789 48.3436C131.789 48.3436 132.666 49.2462 132.694 49.4518C132.694 49.4518 133.057 48.0503 132.824 47.1202C132.824 47.1202 133.576 48.0328 132.867 49.7501L133.509 50.8908C133.509 50.8908 134.09 49.0607 133.942 48.2183C133.942 48.2183 134.567 49.2662 133.646 51.1917L134.11 52.3926C134.11 52.3926 134.729 50.8532 134.77 49.8855C134.77 49.8855 135.138 50.9836 134.228 52.7461L134.444 53.5834C134.444 53.5834 134.875 52.4527 134.97 52.1168C135.065 51.7808 135.163 51.7783 135.163 51.7783C135.159 52.541 134.943 53.2876 134.539 53.9344C134.539 53.9344 134.867 55.6843 134.975 55.6718Z" fill="#060110"/>
<path opacity="0.1" d="M114.111 58.8409C114.111 58.8409 106.46 53.1172 103.725 59.3172C103.725 59.3172 102.89 60.1821 103.489 61.2175C103.489 61.2175 103.775 60.8139 104.492 61.4833C104.746 61.7196 105.027 61.9249 105.329 62.095C105.739 62.323 106.211 62.411 106.675 62.3457C106.675 62.3457 109.523 62.8948 112.803 59.8086C112.803 59.8086 113.974 59.4325 114.084 59.2119L112.356 58.9085C112.356 58.9085 112.176 60.1796 111.286 60.7487C111.286 60.7487 112.387 58.9787 112.101 58.8509C112.043 58.8233 111.181 58.7255 111.181 58.7255C111.181 58.7255 110.86 60.9368 109.456 61.7716C109.456 61.7716 111.053 59.8387 110.855 58.6854L109.544 58.6152C109.544 58.6152 109.32 60.9693 107.756 61.9822C107.756 61.9822 109.353 59.9038 109.26 58.6202L107.962 58.7255C107.962 58.7255 107.698 61.0145 106.392 61.8468C106.392 61.8468 107.994 59.2595 107.666 58.7681C107.666 58.7681 106.48 58.9361 106.187 59.1317C106.187 59.1317 105.958 60.7713 105.156 61.1875C105.156 61.1875 106.046 59.3448 105.866 59.2169C105.866 59.2169 104.379 59.8462 103.795 60.5632C104.3 59.8767 104.976 59.334 105.755 58.9888C105.27 58.7872 104.737 58.7314 104.221 58.8283C104.221 58.8283 104.858 58.1113 106.116 58.8409C106.116 58.8409 107.295 58.3971 107.495 58.4523C107.495 58.4523 106.355 57.5572 105.409 57.4018C105.409 57.4018 106.548 57.0759 107.839 58.4046L109.14 58.2717C109.14 58.2717 107.693 57.0182 106.864 56.8076C106.864 56.8076 108.074 56.6547 109.471 58.2642L110.754 58.3219C110.754 58.3219 109.594 57.1386 108.719 56.7124C108.719 56.7124 109.869 56.8126 111.123 58.3495L111.978 58.4874C111.978 58.4874 111.113 57.64 110.842 57.4193C110.571 57.1987 110.609 57.106 110.609 57.106C111.307 57.4148 111.905 57.9113 112.336 58.54C112.336 58.54 114.079 58.9436 114.111 58.8409Z" fill="#060110"/>
<path opacity="0.1" d="M139.586 5.66338C139.586 5.66338 131.934 -0.0627544 129.199 6.13972C129.199 6.13972 128.364 7.00465 128.963 8.04007C128.963 8.04007 129.249 7.63643 129.966 8.30582C130.221 8.54087 130.503 8.74533 130.806 8.91503C131.215 9.14321 131.688 9.23125 132.152 9.16574C132.152 9.16574 135 9.71479 138.279 6.62609C138.279 6.62609 139.45 6.25254 139.558 6.02941L137.831 5.73107C137.831 5.73107 137.653 7.00215 136.76 7.57125C136.76 7.57125 137.863 5.80126 137.578 5.6734C137.52 5.64583 136.657 5.54805 136.657 5.54805C136.657 5.54805 136.327 7.76429 134.923 8.59413C134.923 8.59413 136.517 6.66119 136.321 5.50794L135.01 5.43774C135.01 5.43774 134.785 7.79187 133.223 8.80222C133.223 8.80222 134.82 6.72386 134.727 5.44025L133.431 5.54554C133.431 5.54554 133.165 7.837 131.859 8.66934C131.859 8.66934 133.463 6.08205 133.135 5.59067C133.135 5.59067 131.949 5.75864 131.656 5.95419C131.656 5.95419 131.428 7.59381 130.625 8.00999C130.625 8.00999 131.515 6.16729 131.335 6.03693C131.335 6.03693 129.848 6.66871 129.264 7.38573C129.769 6.69847 130.445 6.15559 131.225 5.81129C130.739 5.60823 130.205 5.55243 129.688 5.65084C129.688 5.65084 130.327 4.93382 131.586 5.66338C131.586 5.66338 132.764 5.21712 132.965 5.27478C132.965 5.27478 131.824 4.37976 130.879 4.22182C130.879 4.22182 132.014 3.8984 133.305 5.22464L134.607 5.09176C134.607 5.09176 133.163 3.83823 132.33 3.62513C132.33 3.62513 133.541 3.47471 134.94 5.08424L136.224 5.1394C136.224 5.1394 135.063 3.95607 134.185 3.53237C134.185 3.53237 135.339 3.63266 136.592 5.16948L137.445 5.30737C137.445 5.30737 136.577 4.47001 136.306 4.25441C136.036 4.0388 136.073 3.94353 136.073 3.94353C136.771 4.25205 137.369 4.74857 137.801 5.37757C137.801 5.37757 139.543 5.75864 139.586 5.66338Z" fill="#060110"/>
<path opacity="0.1" d="M168.823 12.9166C168.823 12.9166 165.764 3.86359 159.996 7.42111C159.996 7.42111 158.817 7.67182 158.725 8.85265C158.725 8.85265 159.188 8.68217 159.394 9.63485C159.47 9.97373 159.586 10.3027 159.737 10.6151C159.945 11.0356 160.282 11.3777 160.7 11.5904C160.7 11.5904 162.736 13.6587 167.188 12.9743C167.188 12.9743 168.364 13.3303 168.58 13.2074L167.326 11.9764C167.326 11.9764 166.459 12.9216 165.401 12.884C165.401 12.884 167.314 12.0517 167.156 11.7834C167.123 11.7308 166.469 11.1617 166.469 11.1617C166.469 11.1617 164.95 12.7988 163.32 12.691C163.32 12.691 165.729 12.004 166.221 10.936L165.183 10.1363C165.183 10.1363 163.663 11.9464 161.801 11.8912C161.801 11.8912 164.308 11.0864 164.942 9.9733L163.814 9.32397C163.814 9.32397 162.31 11.0614 160.75 11.0062C160.75 11.0062 163.538 9.78527 163.546 9.19361C163.546 9.19361 162.475 8.6596 162.122 8.65459C162.122 8.65459 161.004 9.87553 160.116 9.76522C160.116 9.76522 161.891 8.74986 161.816 8.54177C161.816 8.54177 160.236 8.21836 159.346 8.47909C160.151 8.19882 161.016 8.134 161.853 8.29106C161.567 7.84957 161.159 7.50107 160.678 7.28824C160.678 7.28824 161.61 7.0601 162.234 8.3738C162.234 8.3738 163.458 8.67715 163.588 8.8351C163.588 8.8351 163.157 7.45371 162.468 6.78683C162.468 6.78683 163.588 7.16539 163.894 8.99806L165.042 9.62482C165.042 9.62482 164.569 7.76709 163.997 7.11776C163.997 7.11776 165.082 7.67934 165.318 9.79781L166.346 10.5725C166.346 10.5725 166.06 8.93789 165.579 8.0905C165.579 8.0905 166.471 8.82758 166.632 10.8056L167.256 11.4023C167.256 11.4023 167.025 10.214 166.93 9.87804C166.835 9.54209 166.913 9.51953 166.913 9.51953C167.311 10.1699 167.522 10.9178 167.522 11.6806C167.522 11.6806 168.735 12.9818 168.823 12.9166Z" fill="#060110"/>
<path opacity="0.1" d="M148.862 13.3627C148.862 13.3627 139.36 12.3048 140.145 19.0463C140.145 19.0463 139.861 20.2145 140.897 20.8012C140.897 20.8012 140.939 20.2998 141.9 20.5254C142.239 20.5984 142.586 20.6329 142.933 20.6282C143.401 20.6197 143.855 20.4587 144.224 20.1694C144.224 20.1694 146.959 19.1992 148.235 14.8745C148.235 14.8745 149.052 13.9594 149.035 13.7112L147.393 14.3179C147.393 14.3179 147.894 15.5038 147.393 16.4464C147.393 16.4464 147.445 14.3631 147.142 14.3957C147.079 14.3957 146.287 14.7567 146.287 14.7567C146.287 14.7567 147.129 16.825 146.342 18.2666C146.342 18.2666 146.738 15.7896 145.984 14.8971L144.818 15.4988C144.818 15.4988 145.821 17.6423 144.981 19.307C144.981 19.307 145.307 16.7047 144.572 15.6492L143.507 16.4013C143.507 16.4013 144.439 18.5097 143.735 19.8911C143.735 19.8911 143.808 16.8476 143.274 16.5893C143.274 16.5893 142.336 17.3415 142.183 17.6523C142.183 17.6523 142.817 19.1816 142.338 19.9463C142.338 19.9463 142.17 17.908 141.95 17.888C141.95 17.888 140.987 19.1841 140.847 20.0992C140.934 19.2508 141.241 18.44 141.739 17.7476C141.219 17.8195 140.731 18.0417 140.335 18.3869C140.335 18.3869 140.521 17.4467 141.975 17.4367C141.975 17.4367 142.765 16.4565 142.978 16.4038C142.978 16.4038 141.541 16.2108 140.646 16.5542C140.646 16.5542 141.461 15.6968 143.251 16.1957L144.306 15.421C144.306 15.421 142.399 15.035 141.591 15.2857C141.591 15.2857 142.559 14.5335 144.58 15.223L145.715 14.6188C145.715 14.6188 144.113 14.1876 143.143 14.2653C143.143 14.2653 144.189 13.7639 146.046 14.4583L146.854 14.1449C146.854 14.1449 145.678 13.8516 145.332 13.7965C144.986 13.7413 144.973 13.646 144.973 13.646C145.731 13.5591 146.498 13.6841 147.19 14.0071C147.19 14.0071 148.879 13.468 148.862 13.3627Z" fill="#060110"/>
<path opacity="0.1" d="M231.996 87.1128C231.996 87.1128 222.499 86.0549 223.284 92.7888C223.284 92.7888 223.001 93.9571 224.036 94.5438C224.036 94.5438 224.079 94.0424 225.039 94.2655C225.378 94.341 225.725 94.3755 226.072 94.3683C226.541 94.3611 226.995 94.1999 227.363 93.9095C227.363 93.9095 230.098 92.9393 231.362 88.6171C231.362 88.6171 232.179 87.6995 232.161 87.4538L230.519 88.058C230.519 88.058 231.021 89.2464 230.519 90.189C230.519 90.189 230.572 88.1031 230.269 88.1382C230.206 88.1382 229.414 88.4967 229.414 88.4967C229.414 88.4967 230.256 90.5651 229.469 92.0066C229.469 92.0066 229.865 89.5322 229.11 88.6371L227.945 89.2413C227.945 89.2413 228.947 91.3849 228.11 93.0496C228.11 93.0496 228.433 90.4472 227.699 89.3893L226.633 90.1414C226.633 90.1414 227.566 92.2498 226.862 93.6287C226.862 93.6287 226.934 90.5851 226.4 90.3294C226.4 90.3294 225.465 91.0815 225.31 91.3924C225.31 91.3924 225.946 92.9217 225.465 93.6864C225.465 93.6864 225.297 91.6481 225.076 91.6281C225.076 91.6281 224.114 92.9242 223.973 93.8393C224.06 92.9909 224.368 92.1801 224.866 91.4877C224.345 91.5583 223.857 91.7806 223.462 92.127C223.462 92.127 223.647 91.1843 225.102 91.1743C225.102 91.1743 225.894 90.194 226.104 90.1439C226.104 90.1439 224.668 89.9483 223.773 90.2918C223.773 90.2918 224.588 89.4369 226.38 89.9358L227.433 89.1611C227.433 89.1611 225.548 88.8051 224.728 89.0508C224.728 89.0508 225.696 88.2987 227.716 88.9856L228.852 88.3839C228.852 88.3839 227.25 87.9527 226.28 88.0304C226.28 88.0304 227.325 87.529 229.183 88.2235L229.99 87.9076C229.99 87.9076 228.815 87.6143 228.469 87.5616C228.123 87.509 228.11 87.4112 228.11 87.4112C228.868 87.3226 229.635 87.4468 230.326 87.7697C230.326 87.7697 232.021 87.2207 231.996 87.1128Z" fill="#060110"/>
<path opacity="0.1" d="M246.514 95.9829C246.514 95.9829 237.018 94.9274 237.802 101.659C237.802 101.659 237.522 102.827 238.554 103.414C238.554 103.414 238.597 102.912 239.557 103.138C239.896 103.212 240.241 103.245 240.588 103.238C241.054 103.229 241.505 103.069 241.874 102.782C241.874 102.782 244.607 101.812 245.87 97.4871C245.87 97.4871 246.69 96.572 246.67 96.3238L245.028 96.928C245.028 96.928 245.529 98.1164 245.028 99.059C245.028 99.059 245.08 96.9757 244.777 97.0083C244.714 97.0083 243.922 97.3668 243.922 97.3668C243.922 97.3668 244.764 99.4351 243.977 100.877C243.977 100.877 244.373 98.4022 243.619 97.5097L242.453 98.1114C242.453 98.1114 243.456 100.255 242.618 101.92C242.618 101.92 242.942 99.3173 242.207 98.2618L241.142 99.0139C241.142 99.0139 242.074 101.122 241.372 102.504C241.372 102.504 241.443 99.4577 240.909 99.202C240.909 99.202 239.973 99.9541 239.818 100.265C239.818 100.265 240.455 101.794 239.973 102.559C239.973 102.559 239.805 100.521 239.585 100.501C239.585 100.501 238.622 101.797 238.484 102.712C238.571 101.864 238.878 101.053 239.374 100.36C238.854 100.432 238.366 100.654 237.97 101C237.97 101 238.158 100.057 239.612 100.049C239.612 100.049 240.402 99.0691 240.615 99.0164C240.615 99.0164 239.179 98.8234 238.284 99.1668C238.284 99.1668 239.098 98.3094 240.891 98.8083L241.944 98.0337C241.944 98.0337 240.059 97.6777 239.239 97.9233C239.239 97.9233 240.207 97.1712 242.227 97.8607L243.363 97.2565C243.363 97.2565 241.761 96.8253 240.791 96.903C240.791 96.903 241.836 96.4016 243.694 97.096L244.501 96.7826C244.501 96.7826 243.325 96.4893 242.982 96.4342C242.638 96.379 242.621 96.2837 242.621 96.2837C243.379 96.1968 244.146 96.3217 244.837 96.6447C244.837 96.6447 246.539 96.0907 246.514 95.9829Z" fill="#060110"/>
<path opacity="0.1" d="M214.281 21.2698C214.281 21.2698 206.63 15.5462 203.894 21.7461C203.894 21.7461 203.059 22.6111 203.659 23.6465C203.659 23.6465 203.944 23.2429 204.661 23.9123C204.915 24.1485 205.197 24.3539 205.499 24.524C205.908 24.7518 206.381 24.8398 206.845 24.7747C206.845 24.7747 209.693 25.3237 212.975 22.2375C212.975 22.2375 214.143 21.8615 214.254 21.6409L212.531 21.33C212.531 21.33 212.351 22.6011 211.461 23.1702C211.461 23.1702 212.561 21.4002 212.275 21.2723C212.218 21.2447 211.358 21.147 211.358 21.147C211.358 21.147 211.034 23.3582 209.63 24.193C209.63 24.193 211.227 22.2601 211.029 21.1068L209.718 21.0367C209.718 21.0367 209.495 23.3908 207.931 24.4036C207.931 24.4036 209.53 22.3253 209.435 21.0417L208.136 21.147C208.136 21.147 207.886 23.4359 206.567 24.2683C206.567 24.2683 208.171 21.681 207.84 21.1896C207.84 21.1896 206.655 21.3576 206.361 21.5531C206.361 21.5531 206.136 23.1927 205.333 23.6089C205.333 23.6089 206.221 21.7662 206.04 21.6383C206.04 21.6383 204.554 22.2676 203.97 22.9846C204.475 22.2981 205.151 21.7554 205.93 21.4102C205.445 21.2086 204.912 21.1529 204.396 21.2497C204.396 21.2497 205.035 20.5327 206.294 21.2623C206.294 21.2623 207.469 20.8185 207.67 20.8737C207.67 20.8737 206.529 19.9787 205.584 19.8232C205.584 19.8232 206.722 19.4973 208.013 20.8261L209.315 20.6932C209.315 20.6932 207.871 19.4397 207.038 19.2291C207.038 19.2291 208.249 19.0761 209.646 20.6857L210.932 20.7433C210.932 20.7433 209.768 19.56 208.893 19.1338C208.893 19.1338 210.047 19.2341 211.298 20.7709L212.153 20.9088C212.153 20.9088 211.288 20.0614 211.017 19.8408C210.746 19.6202 210.786 19.5475 210.786 19.5475C211.483 19.8568 212.08 20.3532 212.511 20.9815C212.511 20.9815 214.248 21.3726 214.281 21.2698Z" fill="#060110"/>
<path opacity="0.1" d="M220.193 62.5913C220.193 62.5913 217.555 53.408 211.624 56.7047C211.624 56.7047 210.435 56.8878 210.287 58.0761C210.287 58.0761 210.759 57.9282 210.922 58.8884C210.982 59.2334 211.083 59.57 211.222 59.8912C211.408 60.3232 211.731 60.6825 212.14 60.9141C212.14 60.9141 214.08 63.0702 218.558 62.5888C218.558 62.5888 219.716 62.995 219.937 62.8847L218.751 61.596C218.751 61.596 217.841 62.5036 216.788 62.4183C216.788 62.4183 218.734 61.6662 218.583 61.398C218.553 61.3428 217.926 60.7436 217.926 60.7436C217.926 60.7436 216.337 62.313 214.712 62.13C214.712 62.13 217.152 61.5534 217.688 60.5155L216.685 59.6681C216.685 59.6681 215.086 61.408 213.228 61.2726C213.228 61.2726 215.755 60.5782 216.452 59.4976L215.354 58.7981C215.354 58.7981 213.762 60.4653 212.218 60.34C212.218 60.34 215.058 59.2444 215.093 58.6552C215.093 58.6552 214.045 58.0736 213.692 58.0535C213.692 58.0535 212.521 59.2218 211.631 59.0714C211.631 59.0714 213.451 58.1363 213.386 57.9257C213.386 57.9257 211.822 57.5321 210.922 57.7502C211.737 57.5085 212.601 57.4834 213.429 57.6775C213.163 57.2238 212.771 56.8578 212.3 56.6245C212.3 56.6245 213.243 56.4365 213.805 57.7778C213.805 57.7778 215.011 58.1338 215.136 58.2992C215.136 58.2992 214.767 56.8978 214.108 56.2033C214.108 56.2033 215.211 56.6295 215.434 58.4747L216.552 59.1541C216.552 59.1541 216.161 57.2738 215.62 56.612C215.62 56.612 216.678 57.2212 216.821 59.3472L217.824 60.167C217.824 60.167 217.61 58.5224 217.169 57.6599C217.169 57.6599 218.029 58.4371 218.099 60.4177L218.696 61.0445C218.696 61.0445 218.52 59.8461 218.445 59.5051C218.37 59.1642 218.445 59.1165 218.445 59.1165C218.816 59.7834 218.994 60.5404 218.959 61.3027C218.959 61.3027 220.102 62.6515 220.193 62.5913Z" fill="#060110"/>
<path opacity="0.1" d="M161.422 83.2847C161.422 83.2847 156.3 75.2169 151.544 80.0455C151.544 80.0455 150.456 80.5469 150.647 81.7378C150.647 81.7378 151.061 81.462 151.487 82.3395C151.64 82.6505 151.83 82.9417 152.053 83.2069C152.352 83.5689 152.762 83.8226 153.219 83.929C153.219 83.929 155.689 85.4533 159.85 83.7284C159.85 83.7284 161.076 83.7936 161.257 83.6256L159.752 82.7231C159.752 82.7231 159.133 83.8513 158.098 84.0644C158.098 84.0644 159.758 82.8108 159.534 82.5802C159.492 82.535 158.72 82.1389 158.72 82.1389C158.72 82.1389 157.634 84.0894 156.024 84.3727C156.024 84.3727 158.203 83.1317 158.429 81.9835L157.228 81.4545C157.228 81.4545 156.182 83.573 154.362 83.9616C154.362 83.9616 156.594 82.5852 156.957 81.3517L155.704 80.9907C155.704 80.9907 154.646 83.039 153.129 83.3523C153.129 83.3523 155.546 81.5021 155.413 80.9255C155.413 80.9255 154.244 80.6623 153.909 80.7425C153.909 80.7425 153.114 82.1941 152.216 82.2994C152.216 82.2994 153.7 80.8904 153.578 80.7049C153.578 80.7049 151.966 80.7676 151.163 81.2314C151.879 80.7678 152.704 80.4998 153.555 80.4542C153.174 80.0934 152.695 79.852 152.179 79.7597C152.179 79.7597 153.029 79.316 153.934 80.4442C153.934 80.4442 155.187 80.4442 155.36 80.5695C155.36 80.5695 154.608 79.316 153.783 78.8472C153.783 78.8472 154.961 78.9474 155.694 80.6547L156.96 80.9907C156.96 80.9907 156.055 79.2984 155.35 78.8146C155.35 78.8146 156.536 79.1004 157.27 81.1035L158.454 81.6049C158.454 81.6049 157.787 80.0881 157.118 79.3787C157.118 79.3787 158.161 79.8801 158.785 81.7629L159.537 82.1966C159.537 82.1966 159.035 81.096 158.857 80.7926C158.679 80.4893 158.75 80.4191 158.75 80.4191C159.292 80.955 159.675 81.6312 159.855 82.3721C159.855 82.3721 161.354 83.3699 161.422 83.2847Z" fill="#060110"/>
<path d="M195.084 42.0634C195.084 42.0634 190.213 33.8427 185.307 38.5209C185.307 38.5209 184.204 38.9973 184.359 40.1856C184.359 40.1856 184.778 39.9199 185.179 40.8099C185.323 41.1262 185.503 41.4242 185.718 41.6974C186.006 42.0671 186.408 42.3315 186.861 42.4495C186.861 42.4495 189.281 44.049 193.495 42.4495C193.495 42.4495 194.718 42.5523 194.904 42.3893L193.432 41.4417C193.432 41.4417 192.78 42.5473 191.738 42.7303C191.738 42.7303 193.435 41.5194 193.222 41.2912C193.177 41.2436 192.419 40.8224 192.419 40.8224C192.419 40.8224 191.274 42.7403 189.662 42.9735C189.662 42.9735 191.878 41.8002 192.136 40.662L190.953 40.1054C190.953 40.1054 189.842 42.1938 188.01 42.5272C188.01 42.5272 190.283 41.221 190.685 40.0001L189.446 39.599C189.446 39.599 188.323 41.6046 186.799 41.8804C186.799 41.8804 189.271 40.1054 189.155 39.5263C189.155 39.5263 187.997 39.2254 187.651 39.2956C187.651 39.2956 186.811 40.7221 185.911 40.7998C185.911 40.7998 187.438 39.441 187.323 39.2505C187.323 39.2505 185.708 39.263 184.893 39.7017C185.623 39.2615 186.455 39.0195 187.308 38.9998C186.937 38.6271 186.466 38.3709 185.951 38.2627C185.951 38.2627 186.816 37.844 187.706 38.9998C187.706 38.9998 188.96 39.0424 189.128 39.1703C189.128 39.1703 188.418 37.9167 187.606 37.4003C187.606 37.4003 188.779 37.5356 189.459 39.2655L190.712 39.6416C190.712 39.6416 189.862 37.9217 189.17 37.4153C189.17 37.4153 190.349 37.7387 191.021 39.7619L192.186 40.306C192.186 40.306 191.567 38.7691 190.933 38.0496C190.933 38.0496 191.958 38.5836 192.527 40.484L193.262 40.9402C193.262 40.9402 192.791 39.8246 192.625 39.5162C192.46 39.2079 192.53 39.1402 192.53 39.1402C193.055 39.6925 193.417 40.3799 193.575 41.1258C193.575 41.1258 195.012 42.1461 195.084 42.0634Z" fill="#060110"/>
<path d="M164.265 59.3496C164.265 59.3496 164.516 49.7977 157.88 51.1439C157.88 51.1439 156.691 50.9609 156.19 52.049C156.19 52.049 156.691 52.049 156.551 53.0142C156.505 53.3584 156.5 53.7068 156.536 54.0521C156.581 54.5206 156.779 54.9611 157.1 55.3057C157.1 55.3057 158.296 57.9481 162.711 58.8456C162.711 58.8456 163.691 59.5852 163.937 59.5451L163.185 57.9606C163.185 57.9606 162.044 58.5473 161.064 58.1487C161.064 58.1487 163.145 58.0258 163.087 57.72C163.087 57.6573 162.656 56.8951 162.656 56.8951C162.656 56.8951 160.665 57.9105 159.173 57.2436C159.173 57.2436 161.68 57.4317 162.5 56.6068L161.801 55.4962C161.801 55.4962 159.75 56.6695 158.02 55.9776C158.02 55.9776 160.64 56.0829 161.633 55.263L160.798 54.2602C160.798 54.2602 158.775 55.3683 157.341 54.7817C157.341 54.7817 160.379 54.5987 160.6 54.0446C160.6 54.0446 159.778 53.1747 159.447 53.0418C159.447 53.0418 157.977 53.7939 157.175 53.3878C157.175 53.3878 159.181 53.0518 159.193 52.8287C159.193 52.8287 157.822 51.9788 156.897 51.9161C157.75 51.9314 158.584 52.1699 159.316 52.6081C159.202 52.0956 158.941 51.6277 158.564 51.2618C158.564 51.2618 159.519 51.3696 159.65 52.8162C159.65 52.8162 160.695 53.5231 160.763 53.7187C160.763 53.7187 160.836 52.2721 160.417 51.4097C160.417 51.4097 161.339 52.1493 160.993 53.9744L161.853 54.9622C161.853 54.9622 162.049 53.0518 161.736 52.2571C161.736 52.2571 162.558 53.1571 162.051 55.228L162.746 56.3085C162.746 56.3085 163.042 54.6764 162.884 53.7162C162.884 53.7162 163.465 54.719 162.934 56.6269L163.315 57.4041C163.315 57.4041 163.508 56.2082 163.533 55.8597C163.558 55.5112 163.653 55.4887 163.653 55.4887C163.804 56.2366 163.744 57.0117 163.48 57.7275C163.48 57.7275 164.155 59.3822 164.265 59.3496Z" fill="#060110"/>
<path opacity="0.1" d="M175.236 180.722C178.965 180.722 181.988 180.211 181.988 179.581C181.988 178.951 178.965 178.44 175.236 178.44C171.507 178.44 168.485 178.951 168.485 179.581C168.485 180.211 171.507 180.722 175.236 180.722Z" fill="#060110"/>
<path opacity="0.1" d="M150.624 198.04C154.353 198.04 157.376 197.53 157.376 196.9C157.376 196.27 154.353 195.759 150.624 195.759C146.896 195.759 143.873 196.27 143.873 196.9C143.873 197.53 146.896 198.04 150.624 198.04Z" fill="#060110"/>
<path opacity="0.1" d="M23.3508 189.168C27.0795 189.168 30.1023 188.657 30.1023 188.027C30.1023 187.397 27.0795 186.886 23.3508 186.886C19.622 186.886 16.5993 187.397 16.5993 188.027C16.5993 188.657 19.622 189.168 23.3508 189.168Z" fill="#060110"/>
<path opacity="0.1" d="M201.834 196.9C205.562 196.9 208.585 196.389 208.585 195.759C208.585 195.129 205.562 194.618 201.834 194.618C198.105 194.618 195.082 195.129 195.082 195.759C195.082 196.389 198.105 196.9 201.834 196.9Z" fill="#060110"/>
<path d="M208.863 182.991C214.431 182.991 218.944 182.227 218.944 181.286C218.944 180.344 214.431 179.581 208.863 179.581C203.296 179.581 198.782 180.344 198.782 181.286C198.782 182.227 203.296 182.991 208.863 182.991Z" fill="#060110"/>
<path d="M213.043 178.495C213.503 178.121 213.838 177.616 214.003 177.046C214.128 176.47 213.882 175.78 213.333 175.57C212.717 175.334 212.057 175.76 211.556 176.191C211.054 176.623 210.485 177.117 209.831 177.026C210.167 176.721 210.418 176.334 210.561 175.903C210.703 175.472 210.731 175.012 210.643 174.567C210.615 174.382 210.537 174.209 210.418 174.065C210.074 173.699 209.455 173.857 209.044 174.146C207.74 175.063 207.377 176.833 207.369 178.428C207.239 177.854 207.349 177.254 207.347 176.673C207.344 176.091 207.181 175.419 206.682 175.113C206.376 174.943 206.03 174.856 205.679 174.863C205.093 174.843 204.438 174.9 204.04 175.329C203.538 175.86 203.671 176.755 204.102 177.335C204.534 177.914 205.193 178.287 205.8 178.693C206.285 178.983 206.7 179.378 207.013 179.849C207.049 179.915 207.078 179.984 207.101 180.055H210.776C211.599 179.64 212.361 179.116 213.043 178.495Z" fill="#060110"/>
<path d="M18.818 182.725C18.818 182.725 22.6663 182.607 23.8321 181.78C24.9979 180.952 29.7563 179.967 30.0446 181.293C30.3329 182.62 35.8309 187.884 31.4837 187.919C27.1364 187.955 21.3827 187.243 20.2245 186.536C19.0662 185.829 18.818 182.725 18.818 182.725Z" fill="#A8A8A8"/>
<path opacity="0.2" d="M31.5564 187.458C27.2091 187.493 21.4554 186.781 20.2972 186.074C19.4147 185.538 19.0637 183.61 18.9459 182.72H18.818C18.818 182.72 19.0687 185.826 20.2194 186.53C21.3702 187.235 27.1314 187.949 31.4787 187.914C32.7322 187.914 33.1659 187.458 33.1433 186.796C32.9679 187.2 32.489 187.451 31.5564 187.458Z" fill="black"/>
</g>
<defs>
<linearGradient id="paint0_linear" x1="55.905" y1="108.661" x2="134.158" y2="108.661" gradientUnits="userSpaceOnUse">
<stop stop-color="#808080" stop-opacity="0.25"/>
<stop offset="0.54" stop-color="#808080" stop-opacity="0.12"/>
<stop offset="1" stop-color="#808080" stop-opacity="0.1"/>
</linearGradient>
<clipPath id="clip0">
<rect width="253.098" height="198.04" fill="white"/>
</clipPath>
</defs>
</svg>
