<svg width="12" height="11" viewBox="0 0 12 11" fill="none" xmlns="http://www.w3.org/2000/svg">
<path d="M9.0919 1.58618H2.97696C2.4945 1.58618 2.10339 1.97729 2.10339 2.45974V8.57469C2.10339 9.05714 2.4945 9.44825 2.97696 9.44825H9.0919C9.57436 9.44825 9.96546 9.05714 9.96546 8.57469V2.45974C9.96546 1.97729 9.57436 1.58618 9.0919 1.58618Z" stroke="black" stroke-width="0.393103" stroke-linecap="round" stroke-linejoin="round"/>
<path d="M4.50564 4.64366C4.86748 4.64366 5.16081 4.35033 5.16081 3.98849C5.16081 3.62664 4.86748 3.33331 4.50564 3.33331C4.14379 3.33331 3.85046 3.62664 3.85046 3.98849C3.85046 4.35033 4.14379 4.64366 4.50564 4.64366Z" stroke="black" stroke-width="0.393103" stroke-linecap="round" stroke-linejoin="round"/>
<path d="M9.96556 6.82759L7.78165 4.64368L2.97705 9.44828" stroke="black" stroke-width="0.393103" stroke-linecap="round" stroke-linejoin="round"/>
</svg>
