<svg width="22" height="21" viewBox="0 0 22 21" fill="none" xmlns="http://www.w3.org/2000/svg">
<g clip-path="url(#clip0)">
<path d="M18.8545 9.20774C18.8545 15.0128 11.0045 19.9885 11.0045 19.9885C11.0045 19.9885 3.15454 15.0128 3.15454 9.20774C3.15454 7.22827 3.98159 5.32987 5.45375 3.93018C6.92591 2.53048 8.92259 1.74414 11.0045 1.74414C13.0865 1.74414 15.0832 2.53048 16.5553 3.93018C18.0275 5.32987 18.8545 7.22827 18.8545 9.20774Z" stroke="black" stroke-opacity="0.6" stroke-width="1.01948" stroke-linecap="round" stroke-linejoin="round"/>
<path d="M11.0046 11.6956C12.4498 11.6956 13.6213 10.5818 13.6213 9.20778C13.6213 7.83376 12.4498 6.71991 11.0046 6.71991C9.55946 6.71991 8.38794 7.83376 8.38794 9.20778C8.38794 10.5818 9.55946 11.6956 11.0046 11.6956Z" stroke="black" stroke-opacity="0.6" stroke-width="1.01948" stroke-linecap="round" stroke-linejoin="round"/>
</g>
<defs>
<clipPath id="clip0">
<rect x="0.537842" y="0.914856" width="20.9333" height="19.9029" rx="4.07792" fill="white"/>
</clipPath>
</defs>
</svg>
