<svg width="202" height="161" viewBox="0 0 202 161" fill="none" xmlns="http://www.w3.org/2000/svg">
<g clip-path="url(#clip0)">
<path d="M55.8628 81.373L-0.00732422 98.0286L10.2285 132.364L66.0987 115.709L55.8628 81.373Z" fill="url(#paint0_linear)"/>
<path d="M54.9081 82.5851L0.931641 98.6762L10.4845 130.721L64.4609 114.63L54.9081 82.5851Z" fill="white"/>
<g opacity="0.6">
<path opacity="0.6" d="M5.52762 105.491L12.3943 103.444L10.8794 98.3619L4.0127 100.409L5.52762 105.491Z" fill="#FFCB5A"/>
<path opacity="0.6" d="M14.1074 113.698L40.4773 105.837L39.9862 104.19L13.6163 112.051L14.1074 113.698Z" fill="#FFCB5A"/>
<path opacity="0.6" d="M22.3143 115.138L41.5422 109.406L41.2146 108.307L21.9867 114.039L22.3143 115.138Z" fill="#FFCB5A"/>
</g>
<path d="M142.926 0.000889016L136.077 35.169L193.302 46.3131L200.151 11.145L142.926 0.000889016Z" fill="url(#paint1_linear)"/>
<path d="M143.457 1.01412L137.065 33.8356L192.35 44.602L198.742 11.7805L143.457 1.01412Z" fill="white"/>
<g opacity="0.6">
<path opacity="0.6" d="M144.347 9.18235L151.38 10.552L152.394 5.34705L145.361 3.97739L144.347 9.18235Z" fill="#FFCB5A"/>
<path opacity="0.6" d="M148.143 20.4357L175.153 25.6956L175.481 24.0084L148.472 18.7485L148.143 20.4357Z" fill="#FFCB5A"/>
<path opacity="0.6" d="M154.748 25.5191L174.442 29.3544L174.661 28.2289L154.967 24.3935L154.748 25.5191Z" fill="#FFCB5A"/>
</g>
<path d="M178.513 69.4385L145.643 83.6965L168.843 137.181L201.713 122.923L178.513 69.4385Z" fill="url(#paint2_linear)"/>
<path d="M177.976 70.4493L147.3 83.7559L169.714 135.428L200.39 122.121L177.976 70.4493Z" fill="white"/>
<g opacity="0.6">
<path opacity="0.6" d="M171.74 75.8158L174.591 82.3893L179.456 80.2791L176.604 73.7056L171.74 75.8158Z" fill="#D1E553"/>
<path opacity="0.6" d="M164.611 85.3123L175.561 110.556L177.138 109.872L166.187 84.6283L164.611 85.3123Z" fill="#D1E553"/>
<path opacity="0.6" d="M164.159 93.6309L172.143 112.038L173.195 111.582L165.211 93.1746L164.159 93.6309Z" fill="#D1E553"/>
</g>
<path d="M70.5021 0.251273L15.5564 19.741L27.534 53.5084L82.4797 34.0187L70.5021 0.251273Z" fill="url(#paint3_linear)"/>
<path d="M69.6122 1.51466L16.5288 20.3438L27.7072 51.858L80.7905 33.0289L69.6122 1.51466Z" fill="white"/>
<g opacity="0.6">
<path opacity="0.6" d="M21.4498 26.927L28.2029 24.5317L26.4302 19.534L19.6771 21.9294L21.4498 26.927Z" fill="#FFCB5A" fill-opacity="0.5"/>
<path opacity="0.6" d="M30.4377 34.6891L56.3713 25.4902L55.7967 23.8702L29.8631 33.0691L30.4377 34.6891Z" fill="#FFCB5A" fill-opacity="0.5"/>
<path opacity="0.6" d="M38.7066 35.7075L57.6165 29L57.2331 27.9192L38.3233 34.6267L38.7066 35.7075Z" fill="#FFCB5A" fill-opacity="0.5"/>
</g>
<path d="M100.926 2.13348L33.0488 66.0327L33.0488 160.127H168.8V66.0327L100.926 2.13348Z" fill="url(#paint4_linear)"/>
<path d="M168.112 158.063H33.7368L33.7368 65.8799L100.926 3.28027L168.112 65.8799V158.063Z" fill="white"/>
<path d="M147.703 16.1213L54.1462 16.1213V126.188H147.703V16.1213Z" fill="url(#paint5_linear)"/>
<path d="M146.521 17.0386L55.3276 17.0386V126.188H146.521V17.0386Z" fill="white"/>
<path d="M33.7368 65.8798L100.926 111.971L33.7368 158.063V65.8798Z" fill="#F5F5F5"/>
<path d="M168.112 65.8798L100.926 111.971L168.112 158.063V65.8798Z" fill="#F5F5F5"/>
<path d="M33.7368 158.06L98.287 107.838C99.0381 107.247 99.9662 106.926 100.922 106.926C101.878 106.926 102.806 107.247 103.557 107.838L168.112 158.06H33.7368Z" fill="url(#paint6_linear)"/>
<path d="M33.7368 158.06L98.287 110.032C99.0487 109.466 99.9728 109.16 100.922 109.16C101.871 109.16 102.796 109.466 103.557 110.032L168.112 158.06H33.7368Z" fill="white"/>
<path d="M88.1984 38.1337H69.165V41.3446H88.1984V38.1337Z" fill="#D1E553"/>
<path d="M132.684 46.6194H69.165V49.8303H132.684V46.6194Z" fill="#F5F5F5"/>
<path d="M132.684 52.1215H69.165V55.3323H132.684V52.1215Z" fill="#F5F5F5"/>
<path d="M132.684 57.6257H69.165V60.8366H132.684V57.6257Z" fill="#F5F5F5"/>
<path d="M132.684 63.1277H69.165V66.3385H132.684V63.1277Z" fill="#F5F5F5"/>
<path d="M98.0579 68.632H69.165V71.8428H98.0579V68.632Z" fill="#F5F5F5"/>
<path d="M132.684 78.632H103.791V81.8428H132.684V78.632Z" fill="#FFCB5A"/>
</g>
<defs>
<linearGradient id="paint0_linear" x1="38.1636" y1="124.036" x2="27.9278" y2="89.7008" gradientUnits="userSpaceOnUse">
<stop stop-color="#808080" stop-opacity="0.25"/>
<stop offset="0.54" stop-color="#808080" stop-opacity="0.12"/>
<stop offset="1" stop-color="#808080" stop-opacity="0.1"/>
</linearGradient>
<linearGradient id="paint1_linear" x1="4350.33" y1="10205.6" x2="6073.88" y2="1355.16" gradientUnits="userSpaceOnUse">
<stop stop-color="#808080" stop-opacity="0.25"/>
<stop offset="0.54" stop-color="#808080" stop-opacity="0.12"/>
<stop offset="1" stop-color="#808080" stop-opacity="0.1"/>
</linearGradient>
<linearGradient id="paint2_linear" x1="-20826.7" y1="18557.9" x2="-12554.8" y2="14969.7" gradientUnits="userSpaceOnUse">
<stop stop-color="#808080" stop-opacity="0.25"/>
<stop offset="0.54" stop-color="#808080" stop-opacity="0.12"/>
<stop offset="1" stop-color="#808080" stop-opacity="0.1"/>
</linearGradient>
<linearGradient id="paint3_linear" x1="-580.777" y1="8846.93" x2="-2433.23" y2="3624.46" gradientUnits="userSpaceOnUse">
<stop stop-color="#808080" stop-opacity="0.25"/>
<stop offset="0.54" stop-color="#808080" stop-opacity="0.12"/>
<stop offset="1" stop-color="#808080" stop-opacity="0.1"/>
</linearGradient>
<linearGradient id="paint4_linear" x1="59174.5" y1="109209" x2="59174.5" y2="1457.25" gradientUnits="userSpaceOnUse">
<stop stop-color="#808080" stop-opacity="0.25"/>
<stop offset="0.54" stop-color="#808080" stop-opacity="0.12"/>
<stop offset="1" stop-color="#808080" stop-opacity="0.1"/>
</linearGradient>
<linearGradient id="paint5_linear" x1="40813" y1="59970.7" x2="40813" y2="7675.69" gradientUnits="userSpaceOnUse">
<stop stop-color="#808080" stop-opacity="0.25"/>
<stop offset="0.54" stop-color="#808080" stop-opacity="0.12"/>
<stop offset="1" stop-color="#808080" stop-opacity="0.1"/>
</linearGradient>
<linearGradient id="paint6_linear" x1="80699.2" y1="40334.1" x2="80699.2" y2="29047.1" gradientUnits="userSpaceOnUse">
<stop stop-color="#808080" stop-opacity="0.25"/>
<stop offset="0.54" stop-color="#808080" stop-opacity="0.12"/>
<stop offset="1" stop-color="#808080" stop-opacity="0.1"/>
</linearGradient>
<clipPath id="clip0">
<rect y="-6.10352e-05" width="201.71" height="160.127" fill="white"/>
</clipPath>
</defs>
</svg>
