<svg width="194" height="162" viewBox="0 0 194 162" fill="none" xmlns="http://www.w3.org/2000/svg">
<g clip-path="url(#clip0)">
<g opacity="0.8">
<path opacity="0.8" d="M193.473 0.537476L101.876 0.537476V102.77H193.473V0.537476Z" fill="url(#paint0_linear)"/>
</g>
<path d="M191.958 68.794H103.389V100.543H191.958V68.794Z" fill="white"/>
<path d="M114.091 76.3245H110.659V92.5936H114.091V76.3245Z" fill="#D1E553"/>
<g opacity="0.7">
<path opacity="0.7" d="M120.866 76.3245H117.434V92.5936H120.866V76.3245Z" fill="#D1E553"/>
</g>
<g opacity="0.6">
<path opacity="0.6" d="M127.644 76.3245H124.211V92.5936H127.644V76.3245Z" fill="#D1E553"/>
</g>
<g opacity="0.5">
<path opacity="0.5" d="M134.419 76.3245H130.987V92.5936H134.419V76.3245Z" fill="#D1E553"/>
</g>
<g opacity="0.5">
<path opacity="0.5" d="M141.194 76.3245H137.762V92.5936H141.194V76.3245Z" fill="#D1E553"/>
</g>
<g opacity="0.4">
<path opacity="0.4" d="M147.969 76.3245H144.537V92.5936H147.969V76.3245Z" fill="#D1E553"/>
</g>
<g opacity="0.3">
<path opacity="0.3" d="M154.746 76.3245H151.314V92.5936H154.746V76.3245Z" fill="#D1E553"/>
</g>
<path d="M179.419 92.6359C183.993 92.6359 187.701 88.9281 187.701 84.3543C187.701 79.7805 183.993 76.0727 179.419 76.0727C174.845 76.0727 171.138 79.7805 171.138 84.3543C171.138 88.9281 174.845 92.6359 179.419 92.6359Z" fill="#FFCB5A"/>
<path d="M191.958 35.8079H103.389V67.5571H191.958V35.8079Z" fill="white"/>
<path d="M114.091 43.3385H110.659V59.6075H114.091V43.3385Z" fill="#D1E553"/>
<g opacity="0.7">
<path opacity="0.7" d="M120.866 43.3385H117.434V59.6075H120.866V43.3385Z" fill="#D1E553"/>
</g>
<g opacity="0.6">
<path opacity="0.6" d="M127.644 43.3385H124.211V59.6075H127.644V43.3385Z" fill="#D1E553"/>
</g>
<g opacity="0.5">
<path opacity="0.5" d="M134.419 43.3385H130.987V59.6075H134.419V43.3385Z" fill="#D1E553"/>
</g>
<g opacity="0.5">
<path opacity="0.5" d="M141.194 43.3385H137.762V59.6075H141.194V43.3385Z" fill="#D1E553"/>
</g>
<g opacity="0.4">
<path opacity="0.4" d="M147.969 43.3385H144.537V59.6075H147.969V43.3385Z" fill="#D1E553"/>
</g>
<g opacity="0.3">
<path opacity="0.3" d="M154.746 43.3385H151.314V59.6075H154.746V43.3385Z" fill="#D1E553"/>
</g>
<path d="M179.419 59.6521C183.993 59.6521 187.701 55.9443 187.701 51.3705C187.701 46.7967 183.993 43.0889 179.419 43.0889C174.845 43.0889 171.138 46.7967 171.138 51.3705C171.138 55.9443 174.845 59.6521 179.419 59.6521Z" fill="#FFCB5A"/>
<path d="M191.958 2.82184L103.389 2.82184V34.571H191.958V2.82184Z" fill="white"/>
<path d="M114.091 10.3547H110.659V26.6237H114.091V10.3547Z" fill="#D1E553"/>
<g opacity="0.7">
<path opacity="0.7" d="M120.866 10.3547H117.434V26.6237H120.866V10.3547Z" fill="#D1E553"/>
</g>
<g opacity="0.6">
<path opacity="0.6" d="M127.644 10.3547H124.211V26.6237H127.644V10.3547Z" fill="#D1E553"/>
</g>
<g opacity="0.5">
<path opacity="0.5" d="M134.419 10.3547H130.987V26.6237H134.419V10.3547Z" fill="#D1E553"/>
</g>
<g opacity="0.5">
<path opacity="0.5" d="M141.194 10.3547H137.762V26.6237H141.194V10.3547Z" fill="#D1E553"/>
</g>
<g opacity="0.4">
<path opacity="0.4" d="M147.969 10.3547H144.537V26.6237H147.969V10.3547Z" fill="#D1E553"/>
</g>
<g opacity="0.3">
<path opacity="0.3" d="M154.746 10.3547H151.314V26.6237H154.746V10.3547Z" fill="#D1E553"/>
</g>
<path d="M179.419 27.3123C184.35 27.3123 188.347 23.3152 188.347 18.3844C188.347 13.4536 184.35 9.45648 179.419 9.45648C174.489 9.45648 170.491 13.4536 170.491 18.3844C170.491 23.3152 174.489 27.3123 179.419 27.3123Z" fill="url(#paint1_linear)"/>
<path d="M179.419 60.5191C184.35 60.5191 188.347 56.5219 188.347 51.5911C188.347 46.6604 184.35 42.6632 179.419 42.6632C174.489 42.6632 170.491 46.6604 170.491 51.5911C170.491 56.5219 174.489 60.5191 179.419 60.5191Z" fill="url(#paint2_linear)"/>
<path d="M179.419 93.5029C184.35 93.5029 188.347 89.5057 188.347 84.575C188.347 79.6442 184.35 75.647 179.419 75.647C174.489 75.647 170.491 79.6442 170.491 84.575C170.491 89.5057 174.489 93.5029 179.419 93.5029Z" fill="url(#paint3_linear)"/>
<path d="M179.419 26.666C183.993 26.666 187.701 22.9582 187.701 18.3844C187.701 13.8106 183.993 10.1028 179.419 10.1028C174.845 10.1028 171.138 13.8106 171.138 18.3844C171.138 22.9582 174.845 26.666 179.419 26.666Z" fill="#FFCB5A"/>
<g opacity="0.8">
<path opacity="0.8" d="M130.432 155.51H7.84326L7.84326 77.245C7.84326 76.7826 7.93434 76.3247 8.1113 75.8975C8.28826 75.4703 8.54763 75.0821 8.87461 74.7551C9.20159 74.4281 9.58977 74.1688 10.017 73.9918C10.4442 73.8148 10.9021 73.7238 11.3645 73.7238H126.908C127.371 73.7238 127.829 73.8148 128.256 73.9918C128.683 74.1688 129.071 74.4281 129.398 74.7551C129.725 75.0821 129.984 75.4703 130.161 75.8975C130.338 76.3247 130.429 76.7826 130.429 77.245L130.432 155.51Z" fill="url(#paint4_linear)"/>
</g>
<path d="M13.0537 75.1635H125.221C126.155 75.1635 127.051 75.5344 127.711 76.1948C128.371 76.8552 128.742 77.7508 128.742 78.6847V155.51H9.53247L9.53247 78.6847C9.53247 77.7508 9.90346 76.8552 10.5638 76.1948C11.2242 75.5344 12.1198 75.1635 13.0537 75.1635Z" fill="white"/>
<path d="M124.905 79.8369H13.3704L13.3704 152.992H124.905V79.8369Z" fill="#F5F5F5"/>
<path opacity="0.8" d="M124.86 83.3893H13.7981L13.7981 149.205H124.86V83.3893Z" fill="#E0E0E0"/>
<path d="M124.86 79.8926H13.7981V83.3893H124.86V79.8926Z" fill="#F5F5F5"/>
<path d="M16.1784 82.4333C16.6461 82.4333 17.0253 82.0541 17.0253 81.5864C17.0253 81.1187 16.6461 80.7395 16.1784 80.7395C15.7107 80.7395 15.3315 81.1187 15.3315 81.5864C15.3315 82.0541 15.7107 82.4333 16.1784 82.4333Z" fill="#FF5252"/>
<path d="M18.5095 82.4333C18.9772 82.4333 19.3564 82.0541 19.3564 81.5864C19.3564 81.1187 18.9772 80.7395 18.5095 80.7395C18.0418 80.7395 17.6626 81.1187 17.6626 81.5864C17.6626 82.0541 18.0418 82.4333 18.5095 82.4333Z" fill="#FFFF00"/>
<path d="M20.843 82.4333C21.3107 82.4333 21.6899 82.0541 21.6899 81.5864C21.6899 81.1187 21.3107 80.7395 20.843 80.7395C20.3753 80.7395 19.9961 81.1187 19.9961 81.5864C19.9961 82.0541 20.3753 82.4333 20.843 82.4333Z" fill="#69F0AE"/>
<g opacity="0.8">
<path opacity="0.8" d="M133.862 160.768C127.038 161.285 9.84689 161.077 5.75066 160.768C0.381868 158.18 0.473244 148.142 0.473244 148.142L54.2168 147.784L54.3974 150.839H77.4058L78.2973 148.142H137.864C137.864 148.142 139.048 157.353 133.862 160.768Z" fill="url(#paint5_linear)"/>
</g>
<path d="M136.99 148.951H78.5868C78.8165 149.21 78.966 149.53 79.0169 149.872C79.0679 150.215 79.0182 150.564 78.8738 150.879C78.7295 151.193 78.4967 151.459 78.204 151.643C77.9112 151.828 77.5711 151.923 77.2251 151.918H54.9388C54.5928 151.923 54.2527 151.828 53.9599 151.643C53.6672 151.459 53.4344 151.193 53.2901 150.879C53.1457 150.564 53.096 150.215 53.1469 149.872C53.1979 149.53 53.3473 149.21 53.5771 148.951H1.28208C1.28208 148.951 1.19293 157.67 6.49486 159.916C10.5398 160.186 126.297 160.362 133.037 159.916C138.161 156.95 136.99 148.951 136.99 148.951Z" fill="#F5F5F5"/>
<path d="M13.4149 151.557C13.8125 151.557 14.1348 151.234 14.1348 150.837C14.1348 150.439 13.8125 150.117 13.4149 150.117C13.0174 150.117 12.6951 150.439 12.6951 150.837C12.6951 151.234 13.0174 151.557 13.4149 151.557Z" fill="#E0E0E0"/>
<path d="M15.5721 151.557C15.9697 151.557 16.292 151.234 16.292 150.837C16.292 150.439 15.9697 150.117 15.5721 150.117C15.1746 150.117 14.8523 150.439 14.8523 150.837C14.8523 151.234 15.1746 151.557 15.5721 151.557Z" fill="#E0E0E0"/>
<path d="M17.7294 151.557C18.1269 151.557 18.4492 151.234 18.4492 150.837C18.4492 150.439 18.1269 150.117 17.7294 150.117C17.3318 150.117 17.0095 150.439 17.0095 150.837C17.0095 151.234 17.3318 151.557 17.7294 151.557Z" fill="#E0E0E0"/>
<g opacity="0.7">
<path opacity="0.7" d="M65.6719 85.9767L44.0408 99.2884C44.0408 99.2884 44.0408 126.745 65.6719 141.719C87.3031 126.743 87.3031 99.2884 87.3031 99.2884L65.6719 85.9767Z" fill="url(#paint6_linear)"/>
</g>
<path d="M65.672 87.548L45.2688 100.111C45.2688 100.111 45.2688 126.021 65.6831 140.153C86.0974 126.021 86.0974 100.111 86.0974 100.111L65.672 87.548Z" fill="#FFCB5A"/>
<path opacity="0.05" d="M66.0196 87.548L65.6697 87.7708V139.921L66.0196 140.166C86.4339 126.034 86.4339 100.124 86.4339 100.124L66.0196 87.548Z" fill="#34393E"/>
<path d="M65.6718 90.5834L47.6199 101.695C47.6199 101.695 47.6199 124.615 65.6718 137.117C83.7238 124.615 83.7238 101.695 83.7238 101.695L65.6718 90.5834Z" fill="#FFCB5A"/>
<path opacity="0.08" d="M65.6719 90.6703V137.195C83.7238 124.693 83.7238 101.773 83.7238 101.773L65.6719 90.6703Z" fill="#34393E"/>
<path d="M53.7375 68.8185V22.6857H91.8472" stroke="#34393E" stroke-width="0.445727" stroke-miterlimit="10" stroke-dasharray="2.67 2.67"/>
<path d="M41.9258 54.7781V8.64526L80.0355 8.64526" stroke="#34393E" stroke-width="0.445727" stroke-miterlimit="10" stroke-dasharray="2.67 2.67"/>
<path d="M160.044 106.928V143.032H139.986" stroke="#64FFDA" stroke-width="0.445727" stroke-miterlimit="10" stroke-dasharray="2.67 2.67"/>
<path d="M172.078 114.951V151.055H152.021" stroke="#64FFDA" stroke-width="0.445727" stroke-miterlimit="10" stroke-dasharray="2.67 2.67"/>
</g>
<defs>
<linearGradient id="paint0_linear" x1="147.675" y1="102.77" x2="147.675" y2="0.537476" gradientUnits="userSpaceOnUse">
<stop stop-color="#808080" stop-opacity="0.25"/>
<stop offset="0.54" stop-color="#808080" stop-opacity="0.12"/>
<stop offset="1" stop-color="#808080" stop-opacity="0.1"/>
</linearGradient>
<linearGradient id="paint1_linear" x1="14507.7" y1="2154.66" x2="14507.7" y2="724.047" gradientUnits="userSpaceOnUse">
<stop stop-color="#808080" stop-opacity="0.25"/>
<stop offset="0.54" stop-color="#808080" stop-opacity="0.12"/>
<stop offset="1" stop-color="#808080" stop-opacity="0.1"/>
</linearGradient>
<linearGradient id="paint2_linear" x1="14507.7" y1="4848.39" x2="14507.7" y2="3417.78" gradientUnits="userSpaceOnUse">
<stop stop-color="#808080" stop-opacity="0.25"/>
<stop offset="0.54" stop-color="#808080" stop-opacity="0.12"/>
<stop offset="1" stop-color="#808080" stop-opacity="0.1"/>
</linearGradient>
<linearGradient id="paint3_linear" x1="14507.7" y1="7524.04" x2="14507.7" y2="6093.43" gradientUnits="userSpaceOnUse">
<stop stop-color="#808080" stop-opacity="0.25"/>
<stop offset="0.54" stop-color="#808080" stop-opacity="0.12"/>
<stop offset="1" stop-color="#808080" stop-opacity="0.1"/>
</linearGradient>
<linearGradient id="paint4_linear" x1="58249.6" y1="64290.9" x2="58249.6" y2="34277.7" gradientUnits="userSpaceOnUse">
<stop stop-color="#808080" stop-opacity="0.25"/>
<stop offset="0.54" stop-color="#808080" stop-opacity="0.12"/>
<stop offset="1" stop-color="#808080" stop-opacity="0.1"/>
</linearGradient>
<linearGradient id="paint5_linear" x1="65385.2" y1="10922.4" x2="65385.2" y2="10128.6" gradientUnits="userSpaceOnUse">
<stop stop-color="#808080" stop-opacity="0.25"/>
<stop offset="0.54" stop-color="#808080" stop-opacity="0.12"/>
<stop offset="1" stop-color="#808080" stop-opacity="0.1"/>
</linearGradient>
<linearGradient id="paint6_linear" x1="19925.2" y1="40405.2" x2="19925.2" y2="26462.3" gradientUnits="userSpaceOnUse">
<stop stop-color="#808080" stop-opacity="0.25"/>
<stop offset="0.54" stop-color="#808080" stop-opacity="0.12"/>
<stop offset="1" stop-color="#808080" stop-opacity="0.1"/>
</linearGradient>
<clipPath id="clip0">
<rect x="0.473145" y="0.537537" width="193" height="160.544" fill="white"/>
</clipPath>
</defs>
</svg>
