<svg width="224" height="138" viewBox="0 0 224 138" fill="none" xmlns="http://www.w3.org/2000/svg">
<g clip-path="url(#clip0)">
<path d="M30.9523 137.213C47.9471 137.213 61.724 135.566 61.724 133.534C61.724 131.501 47.9471 129.854 30.9523 129.854C13.9576 129.854 0.180664 131.501 0.180664 133.534C0.180664 135.566 13.9576 137.213 30.9523 137.213Z" fill="#E6E6E6"/>
<path d="M38.798 35.9827C38.7823 36.0611 38.7666 36.1372 38.7487 36.2156C37.9287 39.7151 38.1102 43.2571 39.1296 46.835H22.1028L24.7912 34.5376C24.7905 33.6387 24.9827 32.7501 25.3549 31.9319C25.7271 31.1137 26.2706 30.3849 26.9487 29.7948C27.063 29.6939 27.1817 29.5954 27.3049 29.5057C28.3943 28.6821 29.7232 28.2375 31.0889 28.2399H32.5496C33.4293 28.2386 34.3002 28.4146 35.1104 28.7575C35.247 28.8157 35.3814 28.8784 35.5114 28.9456C38.3342 29.9269 40.0347 32.8327 39.6919 35.8348C39.2842 39.4059 39.8779 42.9031 41.305 46.3376L40.4155 46.4407C38.9929 43.0219 38.3992 39.5404 38.798 35.9827Z" fill="#2F2E41"/>
<path d="M28.4878 37.7615C28.4878 37.7615 29.832 43.5864 27.1436 44.0345C24.4551 44.4826 34.0887 45.8268 34.0887 45.8268C34.0887 45.8268 33.4166 41.122 34.9849 39.5538L28.4878 37.7615Z" fill="#FBBEBE"/>
<path d="M17.2715 78.0738C17.2715 78.0738 16.7223 84.9243 19.0595 85.0164C21.3967 85.1085 20.0984 78.2711 20.0984 78.2711L17.2715 78.0738Z" fill="#FBBEBE"/>
<path d="M48.4272 81.4486C48.4272 81.4486 50.6676 87.9457 48.4272 88.6178C46.1868 89.2899 45.7388 82.3448 45.7388 82.3448L48.4272 81.4486Z" fill="#FBBEBE"/>
<path d="M36.5532 49.1872L39.7063 48.706L41.034 49.6354L42.1542 52.9959L44.8427 66.6623L46.859 75.6236L49.9954 81.8968L44.8427 84.1371L39.9136 68.0064L36.5532 49.1872Z" fill="#FFCB5A"/>
<path d="M24.1191 65.8781C24.1191 65.8781 22.7749 74.8395 23.671 76.6318C23.671 76.6318 22.0035 87.0353 20.7585 93.8827L18.9663 103.74L14.9336 118.751L21.4307 120.543L34.6488 83.801L38.4575 104.412L39.1296 119.199L46.0747 118.975L45.1786 93.2105C45.1786 93.2105 49.2112 76.1838 42.2661 69.9107C35.3209 63.6377 34.2008 63.6377 34.2008 63.6377L24.1191 65.8781Z" fill="#2F2E41"/>
<path d="M43.9462 118.303L45.7385 124.352L46.8587 129.729C46.8587 129.729 50.8914 135.778 46.8587 135.106C42.826 134.433 42.378 132.193 42.378 132.193V130.849L41.2578 130.177V127.936C41.2578 127.936 39.6895 126.816 41.2578 125.024L40.5857 118.751L43.9462 118.303Z" fill="#2F2E41"/>
<path d="M16.614 118.303L14.8217 124.352L13.7015 129.729C13.7015 129.729 9.66881 135.778 13.7015 135.106C17.7341 134.433 18.1822 132.193 18.1822 132.193V130.849L19.3024 130.177V127.936C19.3024 127.936 20.8707 126.816 19.3024 125.024L19.9745 118.751L16.614 118.303Z" fill="#2F2E41"/>
<path d="M32.7445 40.8979C35.8378 40.8979 38.3454 38.3903 38.3454 35.297C38.3454 32.2037 35.8378 29.6961 32.7445 29.6961C29.6512 29.6961 27.1436 32.2037 27.1436 35.297C27.1436 38.3903 29.6512 40.8979 32.7445 40.8979Z" fill="#FBBEBE"/>
<path d="M27.1435 42.9144C27.1435 42.9144 32.9685 45.3788 34.5367 44.9307C36.105 44.4826 36.5531 46.499 36.5531 46.499L41.0338 49.6355L39.6896 57.2527C39.6896 57.2527 40.8098 61.2854 39.4656 63.9738C39.4656 63.9738 43.0501 65.094 41.7059 66.8863C41.7059 66.8863 44.1703 68.2305 42.8261 70.919C42.8261 70.919 36.105 69.1267 35.4329 65.7661L28.4878 66.6623L23.5589 70.4709C23.5589 70.4709 21.0945 70.2469 21.9907 66.6623C22.5174 64.4421 22.44 62.1214 21.7666 59.9412L19.3022 44.2586L27.1435 42.9144Z" fill="#FFCB5A"/>
<path d="M20.044 44.0508L19.1495 44.2879C18.8376 44.3706 18.5582 44.5461 18.3484 44.7912L18.0585 45.1299C17.7716 45.465 17.6002 45.8836 17.5694 46.3237L17.3701 49.1797L17.0549 63.0846L17.3374 72.2658L15.8645 79.1228L21.4133 80.0072L22.1632 63.157L20.7763 44.5719C20.7699 44.4864 20.7447 44.4033 20.7026 44.3285C20.6605 44.2538 20.6024 44.1892 20.5325 44.1395C20.4626 44.0897 20.3826 44.056 20.2981 44.0407C20.2137 44.0253 20.127 44.0288 20.044 44.0508Z" fill="#FFCB5A"/>
<path d="M33.8422 46.1964C32.9225 43.9694 31.5594 41.6157 30.6597 39.5031C30.0388 37.0348 29.8828 34.9219 31.2882 33.8408C31.2882 31.4638 31.3711 29.9134 29.4824 28.7574C29.0277 28.9557 28.598 29.2071 28.2024 29.5065L28.2009 29.5057C28.1262 29.56 28.0537 29.6182 27.9822 29.6777C27.952 29.7026 27.9226 29.7283 27.8928 29.7538C27.8769 29.7675 27.8605 29.7808 27.8447 29.7947L27.8462 29.7957C27.1679 30.3855 26.6241 31.114 26.2517 31.9321C25.8792 32.7502 25.6867 33.6387 25.6873 34.5375V46.3868H32.6324C32.4027 45.386 32.097 44.3488 31.7803 43.3152C32.2817 44.316 32.7748 45.3236 33.1813 46.3062L33.8422 46.1964Z" fill="#2F2E41"/>
<path d="M39.1295 33.8408C36.0942 34.6919 32.68 34.5517 29.0479 33.8408V29.3601H34.6488C35.8371 29.3601 36.9768 29.8322 37.8171 30.6725C38.6574 31.5128 39.1295 32.6525 39.1295 33.8408V33.8408Z" fill="#2F2E41"/>
<path d="M223.906 10.5669H84.9287V97.1093H223.906V10.5669Z" fill="#E6E6E6"/>
<path d="M119.702 27.239H94.2483V43.7839H119.702V27.239Z" fill="white"/>
<path d="M151.33 27.239H125.876V43.7838H151.33V27.239Z" fill="white"/>
<path d="M182.958 27.239H157.504V43.7838H182.958V27.239Z" fill="white"/>
<path d="M214.586 27.239H189.133V43.7838H214.586V27.239Z" fill="white"/>
<path d="M119.702 50.6563H94.2483V67.2012H119.702V50.6563Z" fill="white"/>
<path d="M151.33 50.6563H125.876V67.2012H151.33V50.6563Z" fill="white"/>
<path d="M182.958 50.6563H157.504V67.2012H182.958V50.6563Z" fill="white"/>
<path d="M214.586 50.6563H189.133V67.2012H214.586V50.6563Z" fill="white"/>
<path d="M119.702 74.0737H94.2483V90.6186H119.702V74.0737Z" fill="white"/>
<path d="M151.33 74.0737H125.876V90.6186H151.33V74.0737Z" fill="white"/>
<path d="M182.958 74.0737H157.504V90.6186H182.958V74.0737Z" fill="white"/>
<path d="M214.586 74.0737H189.133V90.6186H214.586V74.0737Z" fill="white"/>
<path d="M121.328 20.7483C123.436 20.7483 125.146 19.0389 125.146 16.9302C125.146 14.8216 123.436 13.1122 121.328 13.1122C119.219 13.1122 117.51 14.8216 117.51 16.9302C117.51 19.0389 119.219 20.7483 121.328 20.7483Z" fill="white"/>
<path d="M184.453 20.7483C186.561 20.7483 188.271 19.0389 188.271 16.9302C188.271 14.8216 186.561 13.1122 184.453 13.1122C182.344 13.1122 180.635 14.8216 180.635 16.9302C180.635 19.0389 182.344 20.7483 184.453 20.7483Z" fill="white"/>
<path d="M122.855 0.385376H119.8V17.9484H122.855V0.385376Z" fill="#E6E6E6"/>
<path d="M185.98 0.385376H182.925V17.9484H185.98V0.385376Z" fill="#E6E6E6"/>
<path d="M207.615 35.5114C207.614 36.8937 207.114 38.2291 206.207 39.2722C205.3 40.3153 204.047 40.996 202.678 41.1894C201.31 41.3827 199.917 41.0757 198.757 40.3246C197.596 39.5736 196.746 38.429 196.362 37.1012C195.978 35.7734 196.086 34.3515 196.666 33.0969C197.246 31.8423 198.259 30.8392 199.52 30.2719C200.78 29.7046 202.203 29.6112 203.527 30.0089C204.851 30.4066 205.987 31.2687 206.726 32.4367C207.307 33.3569 207.616 34.423 207.615 35.5114Z" fill="#FFCB5A"/>
<path d="M206.726 32.4367L201.06 38.1016C200.704 37.5503 198.72 34.9881 198.72 34.9881C198.974 34.7312 199.245 34.4916 199.532 34.2712L201.177 36.4648L206.062 31.5795C206.31 31.8436 206.532 32.1306 206.726 32.4367Z" fill="white"/>
<path d="M144.359 58.9288C144.358 60.3111 143.858 61.6464 142.951 62.6895C142.044 63.7326 140.791 64.4134 139.422 64.6067C138.054 64.8001 136.661 64.493 135.501 63.742C134.34 62.9909 133.49 61.8463 133.106 60.5185C132.722 59.1907 132.83 57.7689 133.41 56.5143C133.99 55.2596 135.003 54.2565 136.264 53.6892C137.524 53.1219 138.947 53.0285 140.271 53.4262C141.595 53.8239 142.731 54.686 143.47 55.8541C144.051 56.7742 144.359 57.8404 144.359 58.9288Z" fill="#FFCB5A"/>
<path d="M143.469 55.8541L137.803 61.519C137.447 60.9677 135.463 58.4055 135.463 58.4055C135.718 58.1486 135.989 57.9091 136.275 57.6887L137.921 59.8822L142.806 54.9969C143.054 55.2611 143.276 55.548 143.469 55.8541Z" fill="white"/>
<path d="M112.731 58.9288C112.73 60.311 112.23 61.6464 111.323 62.6895C110.416 63.7326 109.163 64.4134 107.794 64.6067C106.426 64.8001 105.033 64.493 103.873 63.742C102.712 62.9909 101.862 61.8463 101.478 60.5185C101.093 59.1907 101.201 57.7688 101.782 56.5142C102.362 55.2596 103.375 54.2565 104.636 53.6892C105.896 53.1219 107.319 53.0285 108.643 53.4262C109.967 53.8239 111.102 54.686 111.842 55.854C112.423 56.7742 112.731 57.8404 112.731 58.9288Z" fill="#FFCB5A"/>
<path d="M111.842 55.8541L106.176 61.519C105.819 60.9677 103.835 58.4055 103.835 58.4055C104.09 58.1486 104.361 57.9091 104.648 57.6887L106.293 59.8822L111.178 54.9969C111.426 55.2611 111.648 55.548 111.842 55.8541Z" fill="white"/>
</g>
<defs>
<clipPath id="clip0">
<rect x="0.18042" y="0.385376" width="223.725" height="136.828" fill="white"/>
</clipPath>
</defs>
</svg>
