<svg width="25" height="24" viewBox="0 0 25 24" fill="none" xmlns="http://www.w3.org/2000/svg">
<path d="M18.8331 8.07105C20.4753 8.07105 21.8066 6.73978 21.8066 5.09757C21.8066 3.45536 20.4753 2.12408 18.8331 2.12408C17.1909 2.12408 15.8596 3.45536 15.8596 5.09757C15.8596 6.73978 17.1909 8.07105 18.8331 8.07105Z" stroke="#FEFEFE" stroke-width="1.01948" stroke-linecap="round" stroke-linejoin="round"/>
<path d="M6.93931 15.0092C8.58152 15.0092 9.91279 13.6779 9.91279 12.0357C9.91279 10.3935 8.58152 9.06219 6.93931 9.06219C5.2971 9.06219 3.96582 10.3935 3.96582 12.0357C3.96582 13.6779 5.2971 15.0092 6.93931 15.0092Z" stroke="#FEFEFE" stroke-width="1.01948" stroke-linecap="round" stroke-linejoin="round"/>
<path d="M18.8331 21.9473C20.4753 21.9473 21.8066 20.616 21.8066 18.9738C21.8066 17.3316 20.4753 16.0003 18.8331 16.0003C17.1909 16.0003 15.8596 17.3316 15.8596 18.9738C15.8596 20.616 17.1909 21.9473 18.8331 21.9473Z" stroke="#FEFEFE" stroke-width="1.01948" stroke-linecap="round" stroke-linejoin="round"/>
<path d="M9.50635 13.5323L16.276 17.4772" stroke="#FEFEFE" stroke-width="1.01948" stroke-linecap="round" stroke-linejoin="round"/>
<path d="M16.2661 6.59424L9.50635 10.5391" stroke="#FEFEFE" stroke-width="1.01948" stroke-linecap="round" stroke-linejoin="round"/>
</svg>
