<svg width="199" height="157" viewBox="0 0 199 157" fill="none" xmlns="http://www.w3.org/2000/svg">
<path d="M99.5002 156.175C45.0242 156.175 0.862671 152.043 0.862671 146.945C0.862671 141.847 45.0242 137.715 99.5002 137.715C153.976 137.715 198.138 141.847 198.138 146.945C198.138 152.043 153.976 156.175 99.5002 156.175Z" fill="#34393E" fill-opacity="0.1"/>
<path d="M60.3364 135.668C57.4439 135.668 55.1039 133.328 55.1039 130.435V122.44C55.1039 119.548 57.4439 117.208 60.3364 117.208C63.2289 117.208 65.5688 119.548 65.5688 122.44V130.435C65.5688 133.328 63.2289 135.668 60.3364 135.668Z" stroke="#4D4D61" stroke-width="0.975" stroke-miterlimit="10" stroke-linecap="round" stroke-linejoin="round"/>
<path d="M60.3364 135.668C57.4439 135.668 55.1039 133.328 55.1039 130.435V122.44C55.1039 119.548 57.4439 117.208 60.3364 117.208C63.2289 117.208 65.5688 119.548 65.5688 122.44V130.435C65.5688 133.328 63.2289 135.668 60.3364 135.668Z" fill="#4D4D61"/>
<path d="M64.1063 132.32V124.325C64.1063 121.433 61.7664 119.093 58.8739 119.093C57.6064 119.093 56.4689 119.548 55.5589 120.263C56.3714 118.443 58.1914 117.175 60.3364 117.175C63.2289 117.175 65.5688 119.515 65.5688 122.408V130.403C65.5688 132.06 64.8213 133.523 63.6188 134.465C63.9438 133.848 64.1063 133.1 64.1063 132.32Z" fill="#56566D"/>
<path d="M60.4024 119.32C58.8049 119.32 57.5099 118.854 57.5099 118.28C57.5099 117.706 58.8049 117.24 60.4024 117.24C61.9999 117.24 63.2949 117.706 63.2949 118.28C63.2949 118.854 61.9999 119.32 60.4024 119.32Z" fill="#4D4D61"/>
<path d="M60.3365 118.28C59.264 118.28 58.3865 117.403 58.3865 116.33V107.328C58.3865 106.418 59.134 105.67 60.044 105.67H60.5965C61.5065 105.67 62.254 106.418 62.254 107.328V116.33C62.2865 117.403 61.409 118.28 60.3365 118.28Z" fill="#4D4D61"/>
<path d="M60.3365 118.28C59.264 118.28 58.3865 117.403 58.3865 116.33V107.295C58.3865 106.385 59.1015 105.67 60.0115 105.67H60.629C61.539 105.67 62.254 106.385 62.254 107.295V116.33C62.2865 117.403 61.409 118.28 60.3365 118.28Z" stroke="#4D4D61" stroke-width="0.975" stroke-miterlimit="10" stroke-linecap="round" stroke-linejoin="round"/>
<path d="M101.289 38.655H106.846C107.886 38.655 108.731 37.81 108.731 36.77C108.731 35.73 107.886 34.885 106.846 34.885H104.506C102.654 34.885 101.159 33.39 101.159 31.5375C101.159 29.685 102.654 28.19 104.506 28.19H111.851C112.144 28.19 112.404 27.93 112.404 27.6375C112.404 27.345 112.144 27.085 111.851 27.085H111.039C110.714 27.085 110.454 26.825 110.454 26.5C110.454 26.175 110.714 25.915 111.039 25.915H116.791C117.181 25.915 117.506 26.24 117.506 26.63C117.506 27.02 117.181 27.345 116.791 27.345H114.549C113.899 27.345 113.346 27.8975 113.346 28.5475C113.346 29.1975 113.899 29.75 114.549 29.75H115.621C117.149 29.75 118.416 30.985 118.416 32.545C118.416 34.105 117.181 35.34 115.621 35.34H113.346C112.826 35.34 112.404 35.7625 112.404 36.2825C112.404 36.8025 112.826 37.225 113.346 37.225H114.224C115.231 37.225 116.044 38.0375 116.044 39.045C116.044 40.0525 115.231 40.865 114.224 40.865H102.361C101.711 40.865 101.159 41.4175 101.191 42.0675L101.224 42.9775H98.851V41.0925C98.916 39.7275 99.9885 38.655 101.289 38.655ZM108.991 31.6025C108.991 31.31 108.764 31.05 108.439 31.05H105.221C104.929 31.05 104.669 31.2775 104.669 31.6025C104.669 31.895 104.896 32.155 105.221 32.155H108.439C108.764 32.1225 108.991 31.895 108.991 31.6025Z" fill="#E5E5E5"/>
<path d="M118.512 25.7851H119.487C119.844 25.7851 120.137 25.4926 120.137 25.1351C120.137 24.7776 119.844 24.4851 119.487 24.4851H118.512C118.154 24.4851 117.862 24.7776 117.862 25.1351C117.862 25.4926 118.154 25.7851 118.512 25.7851Z" fill="#E5E5E5"/>
<path d="M40.2847 98.9423L41.6497 96.6998C41.9422 96.2123 41.7797 95.5623 41.2922 95.2373C40.8047 94.9448 40.1547 95.1073 39.8297 95.5948L38.4647 97.8373C38.1722 98.3248 38.3347 98.9748 38.8222 99.2998C39.3422 99.6248 39.9922 99.4623 40.2847 98.9423Z" fill="#4D4D61"/>
<path d="M37.6831 98.0974L39.8931 96.6999C40.3806 96.3749 40.5431 95.7249 40.2181 95.2374C39.8931 94.7499 39.2431 94.5874 38.7556 94.9124L36.5456 96.3099C36.0581 96.6349 35.8956 97.2849 36.2206 97.7724C36.5131 98.2599 37.1631 98.3899 37.6831 98.0974Z" fill="#4D4D61"/>
<path d="M35.897 96.3424L38.497 95.9849C39.082 95.9199 39.472 95.3674 39.407 94.7824C39.342 94.1974 38.7895 93.8074 38.2045 93.8724L35.6045 94.2299C35.0195 94.2949 34.6295 94.8474 34.6945 95.4324C34.792 96.0174 35.312 96.4074 35.897 96.3424Z" fill="#4D4D61"/>
<path d="M34.9882 94.1974L37.5882 94.5549C38.1732 94.6524 38.6932 94.2299 38.7907 93.6449C38.8882 93.0599 38.4657 92.5399 37.8807 92.4424L35.2807 92.0849C34.6957 91.9874 34.1757 92.4099 34.0782 92.9949C34.0132 93.5799 34.4032 94.0999 34.9882 94.1974Z" fill="#4D4D61"/>
<path d="M34.5985 91.9873L37.101 92.7673C37.6535 92.9298 38.2385 92.6373 38.4335 92.0523C38.596 91.4998 38.3035 90.9148 37.7185 90.7198L35.216 89.9398C34.6635 89.7773 34.0785 90.0698 33.8835 90.6548C33.7535 91.2398 34.046 91.8248 34.5985 91.9873Z" fill="#4D4D61"/>
<path d="M34.533 89.7125L36.9705 90.655C37.523 90.85 38.1405 90.59 38.3355 90.0375C38.5305 89.485 38.2705 88.8675 37.718 88.6725L35.2805 87.73C34.728 87.535 34.1105 87.795 33.9155 88.3475C33.7205 88.9 33.9805 89.485 34.533 89.7125Z" fill="#4D4D61"/>
<path d="M34.5968 87.4373L36.9368 88.6398C37.4568 88.8998 38.1068 88.7048 38.3668 88.1848C38.6268 87.6648 38.4318 87.0148 37.9118 86.7548L35.5718 85.5523C35.0518 85.2923 34.4018 85.4873 34.1418 86.0073C33.8818 86.5273 34.0768 87.1773 34.5968 87.4373Z" fill="#4D4D61"/>
<path d="M34.7916 85.9099L37.1316 87.1124C37.6516 87.3724 38.3016 87.1774 38.5616 86.6574C38.8216 86.1374 38.6266 85.4874 38.1066 85.2274L35.7666 84.0249C35.2466 83.7649 34.5966 83.9599 34.3366 84.4799C34.0766 84.9999 34.2716 85.6499 34.7916 85.9099Z" fill="#4D4D61"/>
<path d="M97.1924 44.9599C99.5649 44.9599 101.482 46.8774 101.482 49.2499C101.482 51.6224 99.5649 53.5399 97.1924 53.5399C94.8199 53.5399 92.9024 51.6224 92.9024 49.2499C92.9024 46.8774 94.8199 44.9599 97.1924 44.9599ZM97.1924 51.8824C98.6224 51.8824 99.7924 50.7124 99.7924 49.2824C99.7924 47.8524 98.6224 46.6824 97.1924 46.6824C95.7624 46.6824 94.5924 47.8524 94.5924 49.2824C94.5924 50.7124 95.7624 51.8824 97.1924 51.8824Z" stroke="#4D4D61" stroke-width="0.975" stroke-miterlimit="10" stroke-linecap="round" stroke-linejoin="round"/>
<path d="M93.6509 47.0076H94.1059H97.3559C98.3309 47.0076 98.9809 48.0476 98.4934 48.9251C97.8109 50.2251 96.4134 51.1351 94.8209 51.1351H94.3984V56.0101H89.9459V50.6801C89.9784 48.6651 91.6359 47.0076 93.6509 47.0076Z" fill="#F7E3CB"/>
<path d="M93.6514 47.0076H94.1064H95.5039C93.4564 47.0076 91.7989 48.6651 91.7989 50.7126V56.0426H89.9464V50.7126C89.9789 48.6651 91.6364 47.0076 93.6514 47.0076Z" fill="#EDD6BC"/>
<path d="M93.6497 47.0076H94.1047H97.8422C98.5247 47.0076 98.9797 47.6576 98.7847 48.2751C98.2322 49.9326 96.6722 51.1351 94.8522 51.1351H94.4297V56.0101H89.9772V50.6801C89.9772 48.6651 91.6347 47.0076 93.6497 47.0076Z" stroke="#4D4D61" stroke-width="0.975" stroke-miterlimit="10" stroke-linecap="round" stroke-linejoin="round"/>
<path d="M106.163 55.3926H99.9225C98.5575 55.3926 97.42 54.2876 97.42 52.8901V43.1726H108.665V52.8901C108.665 54.2551 107.56 55.3926 106.163 55.3926Z" fill="#FFD680"/>
<path d="M108.665 51.8825H107.203C105.188 51.8825 103.595 50.2575 103.595 48.275V46.8775L102.848 47.4625" stroke="#4D4D61" stroke-width="0.65" stroke-miterlimit="10" stroke-linecap="round" stroke-linejoin="round"/>
<path d="M100.702 43.14V52.8575C100.702 54.2225 101.807 55.36 103.205 55.36H99.9546C98.5896 55.36 97.4521 54.255 97.4521 52.8575V43.14H100.702Z" fill="#EABD6C"/>
<path d="M106.163 55.3926H99.9225C98.5575 55.3926 97.42 54.2876 97.42 52.8901V43.1726H108.665V52.8901C108.665 54.2551 107.56 55.3926 106.163 55.3926Z" stroke="#4D4D61" stroke-width="0.975" stroke-miterlimit="10" stroke-linecap="round" stroke-linejoin="round"/>
<path d="M78.4722 56.3674L76.8472 59.7149L74.4422 58.0574L78.4722 56.3674Z" fill="#CA4361"/>
<path d="M78.4722 56.3674L76.8472 59.7149L74.4422 58.0574L78.4722 56.3674Z" stroke="#4D4D61" stroke-width="0.65" stroke-miterlimit="10" stroke-linecap="round" stroke-linejoin="round"/>
<path d="M72.9499 132.781L68.5049 130.021L87.0408 100.176L91.4858 102.936L72.9499 132.781Z" fill="#F7E3CB"/>
<path d="M72.9499 132.781L68.5049 130.021L87.0408 100.176L91.4858 102.936L72.9499 132.781Z" stroke="#4D4D61" stroke-width="0.975" stroke-miterlimit="10" stroke-linecap="round" stroke-linejoin="round"/>
<path d="M139.93 124L105.513 96.3099L102.198 100.307L136.615 128.03L139.93 124Z" fill="#F7E3CB"/>
<path d="M136.161 120.978L133.008 125.138L129.888 122.7L133.041 118.443L136.161 120.978Z" fill="#EDD6BC"/>
<path d="M139.93 124L105.513 96.3099L102.198 100.307L136.615 128.03L139.93 124Z" stroke="#4D4D61" stroke-width="0.975" stroke-miterlimit="10" stroke-linecap="round" stroke-linejoin="round"/>
<path d="M65.8626 56.3676L68.3326 53.5076C69.3726 52.3051 71.1926 52.1751 72.3951 53.1826C73.6301 54.2226 73.7601 56.0751 72.7201 57.2776L70.2501 60.1376C66.3501 64.6551 66.8376 71.5126 71.3876 75.4126C75.9051 79.3126 82.7626 78.8251 86.6626 74.2751C88.3526 72.2926 89.2951 69.7901 89.2951 67.1901V55.4251H95.0801V67.2226C95.0801 71.2201 93.6501 75.0551 91.0501 78.0776C85.0376 85.0326 74.5401 85.8126 67.5851 79.8001C60.6301 73.8526 59.8826 63.3226 65.8626 56.3676Z" stroke="#4D4D61" stroke-width="0.975" stroke-miterlimit="10" stroke-linecap="round" stroke-linejoin="round"/>
<path d="M75.1914 58.0574C75.1914 58.0574 71.4539 61.7949 69.0489 65.1749C66.6764 68.5224 64.9214 72.9749 64.9214 73.8524C63.5564 74.7299 63.1989 75.2174 62.9714 74.9899C62.7439 74.7624 62.7439 73.4624 62.7439 72.3249C62.7439 71.1549 73.3064 56.7899 75.1914 58.0574Z" fill="#FFCB5A"/>
<path d="M75.1914 58.0574C75.1914 58.0574 71.4539 61.7949 69.0489 65.1749C66.6764 68.5224 64.9214 72.9749 64.9214 73.8524C63.5564 74.7299 63.1989 75.2174 62.9714 74.9899C62.7439 74.7624 62.7439 73.4624 62.7439 72.3249C62.7439 71.1549 73.3064 56.7899 75.1914 58.0574Z" stroke="#FFCB5A" stroke-opacity="0.5" stroke-width="0.65" stroke-miterlimit="10" stroke-linecap="round" stroke-linejoin="round"/>
<path d="M63.8147 133.523L89.1972 141.225C89.6522 141.355 90.1397 141.095 90.3022 140.64L90.3347 140.575C90.4647 140.12 90.2047 139.633 89.7497 139.47L64.3672 131.768C63.9122 131.638 63.4247 131.898 63.2622 132.353L63.2297 132.418C63.0997 132.905 63.3597 133.393 63.8147 133.523Z" fill="#595D5C"/>
<path d="M63.8147 133.523L89.1972 141.225C89.6522 141.355 90.1397 141.095 90.3022 140.64L90.3347 140.575C90.4647 140.12 90.2047 139.633 89.7497 139.47L64.3672 131.768C63.9122 131.638 63.4247 131.898 63.2622 132.353L63.2297 132.418C63.0997 132.905 63.3597 133.393 63.8147 133.523Z" stroke="#4D4D61" stroke-width="0.975" stroke-miterlimit="10" stroke-linecap="round" stroke-linejoin="round"/>
<path d="M67.8781 126.99L67.9756 127.023C68.5281 127.998 69.6981 128.875 71.1931 129.33C72.2981 129.655 73.4031 129.72 74.3131 129.493C75.1256 129.298 75.9706 129.265 76.7831 129.493L86.7931 132.288C87.9956 132.613 88.9381 133.523 89.4256 134.79L90.4981 137.585C90.8556 138.528 90.0431 139.6 89.1656 139.34L64.5956 131.865L65.6356 128.485C65.9606 127.413 66.9681 126.763 67.8781 126.99Z" fill="#9B8462"/>
<path d="M89.4254 134.823L89.5879 135.278C88.7429 135.928 87.6054 136.188 86.4679 135.863L71.1279 131.183C69.6654 130.728 68.7554 129.428 68.7229 127.965C69.3404 128.55 70.1854 129.038 71.1604 129.33C72.2654 129.655 73.3704 129.72 74.2804 129.493C75.0929 129.298 75.9379 129.265 76.7504 129.493L86.7604 132.288C87.9954 132.613 88.9379 133.523 89.4254 134.823Z" fill="#E1C885"/>
<path d="M67.8781 126.99L67.9756 127.023C68.5281 127.998 69.6981 128.875 71.1931 129.33C72.2981 129.655 73.4031 129.72 74.3131 129.493C75.1256 129.298 75.9706 129.265 76.7831 129.493L86.7931 132.288C87.9956 132.613 88.9381 133.523 89.4256 134.79L90.4981 137.585C90.8556 138.528 90.0431 139.6 89.1656 139.34L64.5956 131.865L65.6356 128.485C65.9606 127.413 66.9681 126.763 67.8781 126.99Z" stroke="#4D4D61" stroke-width="0.975" stroke-miterlimit="10" stroke-linecap="round" stroke-linejoin="round"/>
<path d="M76.7827 132.417L75.0602 129.362L76.3602 129.395L76.7827 132.417Z" stroke="#4D4D61" stroke-width="0.975" stroke-miterlimit="10" stroke-linecap="round" stroke-linejoin="round"/>
<path d="M81.6245 49.64C67.7795 58.285 58.257 72.2275 55.072 88.0225H50.587C53.122 71.9025 62.2545 57.5375 75.872 48.3725" fill="#F7E3CB"/>
<path d="M54.6177 104.858L51.0102 102.518H69.2427L65.6352 104.858C62.2552 107.035 57.9652 107.035 54.6177 104.858Z" stroke="#4D4D61" stroke-width="0.975" stroke-miterlimit="10" stroke-linecap="round" stroke-linejoin="round"/>
<path d="M54.6177 104.858L51.0102 102.518H69.2427L65.6352 104.858C62.2552 107.035 57.9652 107.035 54.6177 104.858Z" fill="#4D4D61"/>
<path d="M76.9119 48.86C73.1744 47.3 70.5093 43.595 70.5093 39.2725V35.7625H69.7943C67.3243 35.7625 65.3093 33.7475 65.3093 31.2775C65.3093 28.8075 67.0318 26.5 69.5343 26.5L70.7369 26.5975L70.5419 21.0725C70.5419 15.32 75.1894 10.6725 80.9419 10.6725C86.6944 10.6725 91.3419 15.32 91.3419 21.0725V26.76H94.4294C95.3719 26.76 96.1519 27.54 96.1519 28.4825C96.1519 31.0175 94.1044 33.0975 91.5369 33.0975H91.3093V39.2725C91.3093 44.765 87.0194 49.2825 81.6244 49.64" fill="#F7E3CB"/>
<path d="M43.7952 96.2449H78.8627C78.9927 96.2449 79.0902 96.2449 79.2202 96.2774C81.9177 96.4724 84.0302 98.8449 83.8352 101.64C83.6727 104.142 81.5927 106.19 79.0577 106.32C78.0502 106.352 77.1077 106.125 76.3277 105.67C73.0127 103.752 69.3077 102.582 65.4402 102.582H43.7952C42.0727 102.582 40.6752 101.185 40.6752 99.4624C40.6427 97.6749 42.0727 96.2449 43.7952 96.2449Z" fill="#FFCB5A"/>
<path d="M78.4402 103.362C78.6352 100.567 76.5227 98.2274 73.8252 97.9999C73.7277 97.9999 73.5977 97.9674 73.4677 97.9674H40.9677C41.4877 96.9274 42.5277 96.2449 43.7627 96.2449H78.8627C78.9927 96.2449 79.0902 96.2449 79.2202 96.2774C81.9177 96.4724 84.0302 98.8449 83.8352 101.64C83.6727 104.142 81.5927 106.19 79.0577 106.32C78.4727 106.352 77.9202 106.287 77.4002 106.125C77.9852 105.312 78.3752 104.37 78.4402 103.362Z" fill="#FFCB5A" fill-opacity="0.5"/>
<path d="M43.7952 96.2449H78.8627C78.9927 96.2449 79.0902 96.2449 79.2202 96.2774C81.9177 96.4724 84.0302 98.8449 83.8352 101.64C83.6727 104.142 81.5927 106.19 79.0577 106.32C78.0502 106.352 77.1077 106.125 76.3277 105.67C73.0127 103.752 69.3077 102.582 65.4402 102.582H43.7952C42.0727 102.582 40.6752 101.185 40.6752 99.4624C40.6427 97.6749 42.0727 96.2449 43.7952 96.2449Z" stroke="#4D4D61" stroke-width="0.975" stroke-miterlimit="10" stroke-linecap="round" stroke-linejoin="round"/>
<path d="M47.8323 138.457L46.9468 136.221L56.6157 132.392L57.5012 134.628L47.8323 138.457Z" fill="#4D4D61"/>
<path d="M71.9389 138.43L72.8164 136.22L64.2689 132.84C63.6514 132.612 62.9689 132.905 62.7089 133.522C62.4814 134.14 62.7739 134.822 63.3914 135.082L71.9389 138.43Z" fill="#4D4D61"/>
<path d="M65.4395 32.1875L66.9345 40.1825C67.552 43.4 70.5095 45.61 73.7595 45.22H73.792L69.957 29.0675L65.4395 32.1875Z" fill="#A3886C"/>
<path d="M65.4395 32.1875L66.9345 40.1825C67.552 43.4 70.5095 45.61 73.7595 45.22H73.792L69.957 29.0675L65.4395 32.1875Z" stroke="#4D4D61" stroke-width="0.975" stroke-miterlimit="10" stroke-linecap="round" stroke-linejoin="round"/>
<path d="M91.3434 33.6501V32.9026C91.3434 31.8626 92.2534 31.0826 93.2609 31.2776L94.4634 31.7001L91.3434 33.6501Z" fill="#EDD6BC"/>
<path d="M69.9574 26.7599H70.5424V21.2024C73.0449 25.0699 76.9449 30.1724 76.9449 30.1724V36.8024V37.1599C76.9449 42.2624 81.0724 46.3899 86.1749 46.3899H88.5474C86.6624 48.4049 83.9649 49.6724 80.9749 49.6724C75.2224 49.6724 70.5749 45.0249 70.5749 39.2724V35.7624H69.8599C67.2924 35.7624 65.2449 33.6174 65.3749 31.0499C65.4399 28.6124 67.5524 26.7599 69.9574 26.7599Z" fill="#EDD6BC"/>
<path d="M75.8718 48.3725C72.6868 46.585 70.5093 43.205 70.5093 39.2725V35.7625H69.7943C67.3243 35.7625 65.3093 33.7475 65.3093 31.2775C65.3093 28.8075 67.0318 26.5 69.5343 26.5L70.7369 26.5975L70.5419 21.0725C70.5419 15.32 75.1894 10.6725 80.9419 10.6725C86.6944 10.6725 91.3419 15.32 91.3419 21.0725V26.76H94.4294C95.3719 26.76 96.1519 27.54 96.1519 28.4825C96.1519 31.0175 94.1044 33.0975 91.5369 33.0975H91.3093V39.2725C91.3093 44.765 87.0194 49.2825 81.6244 49.64" stroke="#4D4D61" stroke-width="0.975" stroke-miterlimit="10" stroke-linecap="round" stroke-linejoin="round"/>
<path d="M87.2807 25.1351C86.9217 25.1351 86.6307 24.8441 86.6307 24.4851C86.6307 24.1262 86.9217 23.8351 87.2807 23.8351C87.6396 23.8351 87.9307 24.1262 87.9307 24.4851C87.9307 24.8441 87.6396 25.1351 87.2807 25.1351Z" stroke="#4D4D61" stroke-width="0.65" stroke-miterlimit="10"/>
<path d="M81.1381 31.1151V36.3801C81.1381 39.7276 83.8681 42.4576 87.2156 42.4576C89.4906 42.4576 91.3105 40.6051 91.3105 38.3626" stroke="#4D4D61" stroke-width="0.65" stroke-miterlimit="10" stroke-linecap="round" stroke-linejoin="round"/>
<path d="M81.7227 30.8224L80.5527 31.4399" stroke="#4D4D61" stroke-width="0.65" stroke-miterlimit="10" stroke-linecap="round" stroke-linejoin="round"/>
<path d="M85.9482 18.375L87.1182 20.65L82.5357 23.445L82.2432 21.495L85.9482 18.375Z" fill="#B0977A"/>
<path d="M85.9467 18.375L86.3042 19.09C85.0367 19.4475 84.0942 20.5525 84.0942 21.9175C84.0942 22.1125 84.1267 22.3075 84.1592 22.47L82.5342 23.4775L82.2417 21.5275L85.9467 18.375Z" fill="#A3886C"/>
<path d="M85.9482 18.375L87.1182 20.65L82.5357 23.445L82.2432 21.495L85.9482 18.375Z" stroke="#4D4D61" stroke-width="0.65" stroke-miterlimit="10" stroke-linecap="round" stroke-linejoin="round"/>
<path d="M63.6201 15.3523C62.5151 16.0348 62.0276 16.2298 60.9551 16.2298C62.8076 13.6298 63.2626 8.52733 66.0251 5.30983C67.2601 3.84733 68.6576 2.25483 71.3226 1.44233C75.9051 0.0773302 80.2276 1.60483 80.7801 1.89733C84.1276 3.68483 87.4751 7.77984 86.5001 11.2898C86.4026 11.6798 86.7276 11.9398 86.5001 12.2323C82.8276 9.43733 77.0426 10.2823 74.3126 14.0523C72.1351 17.0423 72.7201 21.9173 74.8326 24.7123C75.4501 25.3298 75.7101 27.4098 76.6201 29.4898L74.1826 27.9948C71.6801 26.4673 67.9101 26.9223 65.8301 29.0023C65.4726 29.6198 65.2451 30.2698 65.1476 30.9198C64.8876 30.7573 64.5626 30.5623 64.1726 30.2373C61.7676 28.2223 61.3451 25.1673 61.2476 24.3873C60.5326 19.7723 63.1001 15.9373 63.6201 15.3523Z" fill="#B0977A"/>
<path d="M60.9224 16.2625C62.7749 13.6625 63.2299 8.56001 65.9924 5.34252C67.0649 4.07502 68.2674 2.67752 70.3474 1.83252C68.0724 4.46502 66.6749 7.91001 66.6749 11.68C66.6749 17.595 70.0874 22.6975 75.0599 25.1675C75.5149 26.045 75.8074 27.8 76.5874 29.555L74.1499 28.06C71.6474 26.5325 67.8774 26.9875 65.7974 29.0675C65.4399 29.685 65.2124 30.335 65.1149 30.985C64.8549 30.8225 64.5299 30.6275 64.1399 30.3025C61.7349 28.2875 61.3124 25.2325 61.2149 24.4525C60.5649 19.805 63.1649 15.9375 63.6524 15.385C62.4824 16.0675 61.9949 16.2625 60.9224 16.2625Z" fill="#A3886C"/>
<path d="M63.6201 15.3523C62.5151 16.0348 62.0276 16.2298 60.9551 16.2298C62.8076 13.6298 63.2626 8.52733 66.0251 5.30983C67.2601 3.84733 68.6576 2.25483 71.3226 1.44233C75.9051 0.0773302 80.2276 1.60483 80.7801 1.89733C84.1276 3.68483 87.4751 7.77984 86.5001 11.2898C86.4026 11.6798 86.7276 11.9398 86.5001 12.2323C82.8276 9.43733 77.0426 10.2823 74.3126 14.0523C72.1351 17.0423 72.7201 21.9173 74.8326 24.7123C75.4501 25.3298 75.7101 27.4098 76.6201 29.4898L72.9476 27.2798C70.5101 25.7848 67.2926 26.5648 65.8301 29.0348C65.4726 29.6523 65.2451 30.3023 65.1476 30.9523C64.8876 30.7898 64.5626 30.5948 64.1726 30.2698C61.7676 28.2548 61.3451 25.1998 61.2476 24.4198C60.5326 19.7723 63.1001 15.9373 63.6201 15.3523Z" stroke="#4D4D61" stroke-width="0.975" stroke-miterlimit="10" stroke-linecap="round" stroke-linejoin="round"/>
<path d="M71.8755 29.7175L68.008 32.48" stroke="#4D4D61" stroke-width="0.65" stroke-miterlimit="10" stroke-linecap="round" stroke-linejoin="round"/>
<path d="M68.4943 29.0675L71.2568 32.935" stroke="#4D4D61" stroke-width="0.65" stroke-miterlimit="10" stroke-linecap="round" stroke-linejoin="round"/>
<path d="M90.5951 31.8624L90.2376 32.1874C90.2376 32.1874 89.5876 31.5049 88.7426 31.8624C88.9701 31.4074 90.8551 31.1799 90.5951 31.8624Z" stroke="#4D4D61" stroke-width="0.65" stroke-miterlimit="10" stroke-linecap="round" stroke-linejoin="round"/>
<path d="M81.6245 49.64C67.7795 58.285 58.257 72.2275 55.072 88.0225H50.587C53.122 71.9025 62.2545 57.5375 75.872 48.3725" stroke="#4D4D61" stroke-width="0.975" stroke-miterlimit="10" stroke-linecap="round" stroke-linejoin="round"/>
<path d="M97.9852 95.1868L78.0737 127.241L71.42 123.107L91.3315 91.0536L97.9852 95.1868Z" fill="#475C80"/>
<path opacity="0.57" d="M94.0415 101.77L79.709 124.618C78.799 124.033 76.0365 125.3 76.6215 124.39L89.719 104.793C90.304 103.883 92.8065 101.51 93.749 102.095L94.0415 101.77Z" fill="#6987AF"/>
<path d="M94.6578 100.535C94.6578 100.535 88.5153 98.6175 86.4028 99.0075C88.5478 94.8801 89.3278 94.0676 89.3278 94.0676L97.5503 96.7325L94.6578 100.535Z" fill="#4D4D61"/>
<path d="M97.9852 95.1868L78.0737 127.241L71.42 123.107L91.3315 91.0536L97.9852 95.1868Z" stroke="#4D4D61" stroke-width="0.975" stroke-miterlimit="10" stroke-linecap="round" stroke-linejoin="round"/>
<path d="M109.867 97.7399L134.924 118.41L129.952 124.455L107.072 105.572C99.7268 99.4949 90.4643 96.1799 80.9418 96.1799H52.5693C50.4243 96.1799 48.6693 94.4249 48.6693 92.2799V88.3799H83.7693C93.2918 88.3474 102.522 91.6624 109.867 97.7399Z" fill="#475C80"/>
<path opacity="0.57" d="M133.364 117.11L131.154 120.197L104.992 96.765L106.324 95.1075C107.559 95.92 108.729 96.7975 109.867 97.74L133.364 117.11Z" fill="#6987AF"/>
<path opacity="0.57" d="M89.4248 90.3625L60.1423 90.7525C58.6148 90.7525 53.4798 89.8425 53.4798 88.315H83.7048C86.8248 88.315 96.6398 89.8425 100.247 91.7925C101.19 92.3125 93.8123 90.3625 89.4248 90.3625Z" fill="#6987AF"/>
<path d="M109.867 97.7399L134.924 118.41L129.952 124.455L107.072 105.572C99.7268 99.4949 90.4643 96.1799 80.9418 96.1799H52.5693C50.4243 96.1799 48.6693 94.4249 48.6693 92.2799V88.3799H83.7693C93.2918 88.3474 102.522 91.6624 109.867 97.7399Z" stroke="#4D4D61" stroke-width="0.975" stroke-miterlimit="10" stroke-linecap="round" stroke-linejoin="round"/>
<path d="M48.6362 88.0225C50.8787 73.3975 58.4512 60.04 69.7287 50.5825L76.8462 55.5225C66.7387 63.7775 59.7512 75.2825 57.0862 88.0225H48.6362Z" fill="#E5E5E5"/>
<path d="M57.0862 88.0225H53.5112C56.2737 74.5674 63.5537 62.3799 74.0512 53.5724L76.8462 55.5224C66.7387 63.7449 59.7512 75.2824 57.0862 88.0225Z" fill="white"/>
<path d="M48.6362 88.0225C50.8787 73.3975 58.4512 60.04 69.7287 50.5825L76.8462 55.5225C66.7387 63.7775 59.7512 75.2825 57.0862 88.0225H48.6362Z" stroke="#4D4D61" stroke-width="0.975" stroke-miterlimit="10" stroke-linecap="round" stroke-linejoin="round"/>
<path d="M100.573 65.4675C100.573 65.4675 103.27 67.71 103.043 63.095C102.945 60.9825 100.183 61.0475 100.183 61.0475L99.89 63.03L100.573 65.4675Z" fill="#B0977A"/>
<path d="M100.573 65.4675C100.573 65.4675 103.27 67.71 103.043 63.095C102.945 60.9825 100.183 61.0475 100.183 61.0475L99.89 63.03L100.573 65.4675Z" stroke="#4D4D61" stroke-width="0.975" stroke-miterlimit="10" stroke-linecap="round" stroke-linejoin="round"/>
<path d="M92.6102 60.4624C93.9102 62.2824 95.9252 63.4524 98.1677 63.6799C99.8577 63.8424 99.8252 59.9424 102.458 64.5574C103.498 65.1099 104.733 64.0049 105.285 63.3549C105.448 63.1599 105.448 62.8674 105.253 62.7049C104.765 62.2824 103.855 61.2749 103.433 59.5199C103.14 57.8299 102.588 56.5949 101.255 57.3099C100.085 57.9274 92.8052 57.0499 92.6102 60.4624Z" fill="#EDD6BC"/>
<path d="M92.6095 60.4624C93.9095 62.2824 95.9245 63.4524 98.167 63.6799C99.857 63.8424 99.8245 59.9424 102.457 64.5574C103.497 65.1099 104.7 64.0049 105.285 63.3874C105.48 63.1924 105.447 62.8674 105.252 62.7049C104.732 62.2499 103.855 61.2749 103.465 59.5199C103.172 57.8299 102.62 56.5949 101.287 57.3099C100.085 57.9274 92.8045 57.0499 92.6095 60.4624Z" stroke="#4D4D61" stroke-width="0.975" stroke-miterlimit="10" stroke-linecap="round" stroke-linejoin="round"/>
<path d="M91.668 64.2973C91.668 64.2973 92.6105 61.5673 95.1455 60.2673C95.4055 61.2748 96.7055 62.2823 97.973 62.6398L97.258 63.8748C96.7055 64.8823 97.1605 66.1498 98.233 66.5073C99.1755 66.8323 100.183 66.3773 100.573 65.4673L102.166 60.6248C102.166 60.6248 99.0455 59.4873 98.103 58.5123C97.453 57.8623 95.9255 55.4248 95.9255 55.4248C95.9255 55.4248 93.098 56.1073 91.1805 58.0248C89.588 59.6173 88.158 62.3148 88.158 62.3148L91.668 64.2973Z" fill="#EDD6BC"/>
<path d="M98.6878 66.3773L100.28 61.5348C100.28 61.5348 97.1603 60.3973 96.2178 59.4223C95.5678 58.7723 94.0403 56.3348 94.0403 56.3348C94.0403 56.3348 93.6178 56.4323 92.9678 56.6923C94.4953 55.7823 95.9578 55.4248 95.9578 55.4248C95.9578 55.4248 97.4853 57.8623 98.1353 58.5123C99.1103 59.4548 102.198 60.6248 102.198 60.6248L100.605 65.4673C100.28 66.2798 99.4353 66.7348 98.5903 66.5723C98.6228 66.5073 98.6553 66.4423 98.6878 66.3773Z" fill="#F7E3CB"/>
<path d="M93.2608 61.1774C93.2933 61.3074 93.3583 61.4374 93.4233 61.5674C92.1883 62.8674 91.6684 64.2974 91.6684 64.2974L90.5633 63.6799C91.1158 62.8349 91.9933 61.8274 93.2608 61.1774Z" fill="#F7E3CB"/>
<path d="M91.668 64.2973C91.668 64.2973 92.6105 61.5673 95.1455 60.2673C95.4055 61.2748 96.7055 62.2823 97.973 62.6398L97.258 63.8748C96.7055 64.8823 97.1605 66.1498 98.233 66.5073C99.1755 66.8323 100.183 66.3773 100.573 65.4673L102.166 60.6248C102.166 60.6248 99.0455 59.4873 98.103 58.5123C97.453 57.8623 95.9255 55.4248 95.9255 55.4248C95.9255 55.4248 93.098 56.1073 91.1805 58.0248C89.588 59.6173 88.158 62.3148 88.158 62.3148L91.668 64.2973Z" stroke="#4D4D61" stroke-width="0.975" stroke-miterlimit="10" stroke-linecap="round" stroke-linejoin="round"/>
<path d="M100.572 64.5576L99.5968 64.2651C99.5968 64.2651 99.1093 64.7526 99.1093 65.2076C99.1093 65.6626 100.247 66.0201 100.247 66.0201C100.247 66.0201 100.994 64.9476 100.572 64.5576Z" stroke="#4D4D61" stroke-width="0.65" stroke-miterlimit="10" stroke-linecap="round" stroke-linejoin="round"/>
<path d="M104.376 61.86L103.596 62.51C103.596 62.51 103.726 63.1926 104.116 63.4201C104.473 63.6476 105.416 62.9326 105.416 62.9326C105.416 62.9326 104.928 61.73 104.376 61.86Z" stroke="#4D4D61" stroke-width="0.65" stroke-miterlimit="10" stroke-linecap="round" stroke-linejoin="round"/>
<path d="M87.6056 61.5999L79.3181 77.4924C78.1156 79.7999 76.1331 81.5874 73.6956 82.5624C68.1381 84.7724 61.8331 82.0424 59.6231 76.4849C57.4131 70.9274 60.1431 64.6224 65.7006 62.4124L69.2106 61.0149C70.7056 60.4299 71.4206 58.7074 70.8356 57.2449C70.2506 55.7824 68.5606 55.0674 67.0656 55.6524L63.5556 57.0499C55.0081 60.4299 50.8481 70.1149 54.2281 78.6299C57.6081 87.1774 67.2931 91.3374 75.8081 87.9574C79.5131 86.4949 82.5681 83.7324 84.4206 80.1899L92.5781 64.5574L87.6056 61.5999Z" fill="#E5E5E5"/>
<path d="M85.3619 65.8902L87.6044 61.6002L92.6094 64.5577L90.3994 68.7827L85.3619 65.8902Z" fill="#E5E5E5"/>
<path d="M92.6094 64.5575L84.4519 80.19C84.1594 80.7425 83.8344 81.295 83.4769 81.815C83.6719 80.6775 82.5019 83.115 82.5019 83.115L90.8219 63.4525L92.6094 64.5575Z" fill="white"/>
<path d="M85.3619 65.8902L87.6044 61.6002L92.6094 64.5577L90.3994 68.7827L85.3619 65.8902Z" stroke="#4D4D61" stroke-width="0.975" stroke-miterlimit="10" stroke-linecap="round" stroke-linejoin="round"/>
<path d="M70.4128 59.0976C69.8278 57.6351 68.1378 56.9201 66.6428 57.5051L63.1328 58.9026C58.1278 60.8851 54.6178 65.0451 53.2528 69.8876C54.1628 64.2976 57.9003 59.2926 63.5228 57.0501L67.0328 55.6526C68.5278 55.0676 70.1853 55.7826 70.8028 57.2451C71.1603 58.1226 71.0628 59.0976 70.5753 59.8451C70.5753 59.5851 70.5103 59.3576 70.4128 59.0976Z" fill="white"/>
<path d="M87.1815 62.4126L80.389 77.9151C78.6665 81.0351 76.554 83.4726 74.149 84.4151C68.5915 86.6251 61.474 83.8951 59.264 78.3376C58.3215 75.9326 58.289 73.3976 59.004 71.1226C58.7765 72.8776 58.9715 74.7301 59.6865 76.4851C61.8965 82.0426 68.2015 84.7726 73.759 82.5626C76.164 81.5876 78.179 79.8001 79.3815 77.4926L87.604 61.6001" fill="white"/>
<path d="M87.6056 61.5999L79.3181 77.4924C78.1156 79.7999 76.1331 81.5874 73.6956 82.5624C68.1381 84.7724 61.8331 82.0424 59.6231 76.4849C57.4131 70.9274 60.1431 64.6224 65.7006 62.4124L69.2106 61.0149C70.7056 60.4299 71.4206 58.7074 70.8356 57.2449C70.2506 55.7824 68.5606 55.0674 67.0656 55.6524L63.5556 57.0499C55.0081 60.4299 50.8481 70.1149 54.2281 78.6299C57.6081 87.1774 67.2931 91.3374 75.8081 87.9574C79.5131 86.4949 82.5681 83.7324 84.4206 80.1899L92.5781 64.5574L87.6056 61.5999Z" stroke="#4D4D61" stroke-width="0.975" stroke-miterlimit="10" stroke-linecap="round" stroke-linejoin="round"/>
<path d="M69.6006 49.6726L74.833 58.7401L80.748 54.8401L72.0056 48.6976L69.6006 49.6726Z" fill="#E5E5E5"/>
<path d="M73.9881 50.095L80.748 54.84L78.083 56.595C78.0505 56.5625 78.018 56.5625 77.9855 56.53C75.028 54.905 73.3381 52.1425 73.9881 50.095Z" fill="white"/>
<path d="M69.6006 49.6726L74.833 58.7401L80.748 54.8401L72.0056 48.6976L69.6006 49.6726Z" stroke="#4D4D61" stroke-width="0.975" stroke-miterlimit="10" stroke-linecap="round" stroke-linejoin="round"/>
<path d="M76.8136 144.93C73.2955 144.93 70.4436 142.078 70.4436 138.56C70.4436 135.042 73.2955 132.19 76.8136 132.19C80.3317 132.19 83.1836 135.042 83.1836 138.56C83.1836 142.078 80.3317 144.93 76.8136 144.93Z" fill="#56566D"/>
<path opacity="0.44" d="M80.4873 141.745C80.4873 138.235 77.6273 135.375 74.1173 135.375C72.9473 135.375 71.8423 135.7 70.8998 136.252C71.8423 133.88 74.1498 132.19 76.8473 132.19C80.3573 132.19 83.2173 135.05 83.2173 138.56C83.2173 140.9 81.9498 142.947 80.0648 144.052C80.3248 143.337 80.4873 142.557 80.4873 141.745Z" fill="#66667C"/>
<path d="M76.8136 144.93C73.2955 144.93 70.4436 142.078 70.4436 138.56C70.4436 135.042 73.2955 132.19 76.8136 132.19C80.3317 132.19 83.1836 135.042 83.1836 138.56C83.1836 142.078 80.3317 144.93 76.8136 144.93Z" stroke="#4D4D61" stroke-width="0.975" stroke-miterlimit="10" stroke-linecap="round" stroke-linejoin="round"/>
<path d="M76.8133 141.712C75.0722 141.712 73.6608 140.301 73.6608 138.56C73.6608 136.819 75.0722 135.407 76.8133 135.407C78.5544 135.407 79.9658 136.819 79.9658 138.56C79.9658 140.301 78.5544 141.712 76.8133 141.712Z" stroke="#4D4D61" stroke-width="0.975" stroke-miterlimit="10" stroke-linecap="round" stroke-linejoin="round"/>
<path d="M76.8133 141.712C75.0722 141.712 73.6608 140.301 73.6608 138.56C73.6608 136.819 75.0722 135.407 76.8133 135.407C78.5544 135.407 79.9658 136.819 79.9658 138.56C79.9658 140.301 78.5544 141.712 76.8133 141.712Z" fill="#4D4D61"/>
<path d="M69.4057 135.407C70.4782 135.407 71.4532 134.952 72.2007 134.172C73.3707 132.937 74.9957 132.19 76.8157 132.19C78.6032 132.19 80.1957 132.905 81.3657 134.107C82.1782 134.92 83.2182 135.407 84.3557 135.407H84.3882C83.1532 132.45 80.2282 130.37 76.8157 130.37C73.4032 130.37 70.4782 132.45 69.2432 135.407H69.4057Z" fill="#CA4361"/>
<path d="M78.7982 130.598C81.3332 131.215 83.3807 133.035 84.3882 135.408H84.3557C83.2507 135.408 82.2107 134.985 81.4632 134.205C80.8132 133.523 79.4807 132.97 78.4082 132.645C77.4657 132.353 77.4007 130.988 78.3432 130.663C78.4407 130.598 78.6357 130.565 78.7982 130.598Z" fill="#D35375"/>
<path d="M69.4057 135.407C70.4782 135.407 71.4532 134.952 72.2007 134.172C73.3707 132.937 74.9957 132.19 76.8157 132.19C78.6032 132.19 80.1957 132.905 81.3657 134.107C82.1782 134.92 83.2182 135.407 84.3557 135.407H84.3882C83.1532 132.45 80.2282 130.37 76.8157 130.37C73.4032 130.37 70.4782 132.45 69.2432 135.407H69.4057Z" stroke="#4D4D61" stroke-width="0.975" stroke-miterlimit="10" stroke-linecap="round" stroke-linejoin="round"/>
<path d="M42.6573 144.93C39.1393 144.93 36.2873 142.078 36.2873 138.56C36.2873 135.042 39.1393 132.19 42.6573 132.19C46.1754 132.19 49.0273 135.042 49.0273 138.56C49.0273 142.078 46.1754 144.93 42.6573 144.93Z" fill="#56566D"/>
<path opacity="0.44" d="M46.102 141.745C46.102 138.235 43.242 135.375 39.732 135.375C38.562 135.375 37.457 135.7 36.5145 136.252C37.457 133.88 39.7645 132.19 42.462 132.19C45.972 132.19 48.832 135.05 48.832 138.56C48.832 140.9 47.5645 142.947 45.6795 144.052C45.9395 143.337 46.102 142.557 46.102 141.745Z" fill="#66667C"/>
<path d="M42.6573 144.93C39.1393 144.93 36.2873 142.078 36.2873 138.56C36.2873 135.042 39.1393 132.19 42.6573 132.19C46.1754 132.19 49.0273 135.042 49.0273 138.56C49.0273 142.078 46.1754 144.93 42.6573 144.93Z" stroke="#4D4D61" stroke-width="0.975" stroke-miterlimit="10" stroke-linecap="round" stroke-linejoin="round"/>
<path d="M157.544 86.0399H161.964V146.717H157.544V86.0399Z" stroke="#4D4D61" stroke-width="0.975" stroke-miterlimit="10" stroke-linecap="round" stroke-linejoin="round"/>
<path d="M157.544 86.0399H161.964V146.717H157.544V86.0399Z" fill="#4D4D61"/>
<path d="M42.6571 141.712C40.916 141.712 39.5046 140.301 39.5046 138.56C39.5046 136.819 40.916 135.407 42.6571 135.407C44.3981 135.407 45.8096 136.819 45.8096 138.56C45.8096 140.301 44.3981 141.712 42.6571 141.712Z" stroke="#4D4D61" stroke-width="0.975" stroke-miterlimit="10" stroke-linecap="round" stroke-linejoin="round"/>
<path d="M35.247 135.407C36.3195 135.407 37.2945 134.952 38.042 134.172C39.212 132.937 40.837 132.19 42.657 132.19C44.4445 132.19 46.037 132.905 47.207 134.107C48.0195 134.92 49.0595 135.407 50.197 135.407H50.2295C48.9945 132.45 46.0695 130.37 42.657 130.37C39.2445 130.37 36.3195 132.45 35.0845 135.407H35.247Z" fill="#FFCB5A"/>
<path d="M42.6571 141.712C40.916 141.712 39.5046 140.301 39.5046 138.56C39.5046 136.819 40.916 135.407 42.6571 135.407C44.3981 135.407 45.8096 136.819 45.8096 138.56C45.8096 140.301 44.3981 141.712 42.6571 141.712Z" fill="#4D4D61"/>
<path d="M35.247 135.407C36.3195 135.407 37.2945 134.952 38.042 134.172C39.212 132.937 40.837 132.19 42.657 132.19C44.4445 132.19 46.037 132.905 47.207 134.107C48.0195 134.92 49.0595 135.407 50.197 135.407H50.2295C48.9945 132.45 46.0695 130.37 42.657 130.37C39.2445 130.37 36.3195 132.45 35.0845 135.407H35.247Z" stroke="#4D4D61" stroke-width="0.975" stroke-miterlimit="10" stroke-linecap="round" stroke-linejoin="round"/>
<path d="M87.2147 79.995H182.635C183.415 79.995 184.032 79.3775 184.032 78.5975V75.965C184.032 75.185 183.415 74.5675 182.635 74.5675H87.2147C86.4347 74.5675 85.8172 75.185 85.8172 75.965V78.5975C85.8172 79.3775 86.4347 79.995 87.2147 79.995Z" fill="#B98C78"/>
<path d="M147.634 77.5574C161.511 77.5574 173.991 78.4999 182.539 79.9949H112.696C121.276 78.4999 133.756 77.5574 147.634 77.5574Z" fill="#C9A08F"/>
<path d="M87.2147 79.995H182.635C183.415 79.995 184.032 79.3775 184.032 78.5975V75.965C184.032 75.185 183.415 74.5675 182.635 74.5675H87.2147C86.4347 74.5675 85.8172 75.185 85.8172 75.965V78.5975C85.8172 79.3775 86.4347 79.995 87.2147 79.995Z" stroke="#4D4D61" stroke-width="0.975" stroke-miterlimit="10" stroke-linecap="round" stroke-linejoin="round"/>
<path d="M97.5163 86.95H172.364C174.281 86.95 175.841 85.39 175.841 83.4725C175.841 81.555 174.281 79.995 172.364 79.995H97.5163C95.5988 79.995 94.0388 81.555 94.0388 83.4725C94.0388 85.39 95.5988 86.95 97.5163 86.95Z" stroke="#4D4D61" stroke-width="0.975" stroke-miterlimit="10" stroke-linecap="round" stroke-linejoin="round"/>
<path d="M97.5163 86.95H172.364C174.281 86.95 175.841 85.39 175.841 83.4725C175.841 81.555 174.281 79.995 172.364 79.995H97.5163C95.5988 79.995 94.0388 81.555 94.0388 83.4725C94.0388 85.39 95.5988 86.95 97.5163 86.95Z" fill="#4D4D61"/>
<path d="M144.675 85.3249C155.368 85.3249 164.533 86.0074 168.562 86.9499H120.788C124.818 85.9749 133.983 85.3249 144.675 85.3249Z" fill="#575770"/>
<path d="M143.343 69.2701C142.176 69.2701 141.231 68.3243 141.231 67.1576C141.231 65.9909 142.176 65.0451 143.343 65.0451C144.51 65.0451 145.456 65.9909 145.456 67.1576C145.456 68.3243 144.51 69.2701 143.343 69.2701Z" fill="#83ABBA"/>
<path d="M143.343 69.2701C142.176 69.2701 141.231 68.3243 141.231 67.1576C141.231 65.9909 142.176 65.0451 143.343 65.0451C144.51 65.0451 145.456 65.9909 145.456 67.1576C145.456 68.3243 144.51 69.2701 143.343 69.2701Z" stroke="#4D4D61" stroke-width="0.975" stroke-miterlimit="10" stroke-linecap="round" stroke-linejoin="round"/>
<path d="M143.961 66.3125L143.798 66.28L151.761 22.0475L151.923 22.08C153.451 22.3725 154.491 23.835 154.198 25.3625L147.243 64.0375C146.983 65.565 145.521 66.5725 143.961 66.3125Z" fill="#92B4C3"/>
<path d="M147.373 63.3549C147.373 58.3174 147.828 52.8574 148.836 47.2349C149.876 41.3524 151.403 35.8274 153.223 30.9524L147.373 63.3549Z" fill="#ACD3E5"/>
<path d="M143.961 66.3125L143.798 66.28L151.761 22.0475L151.923 22.08C153.451 22.3725 154.491 23.835 154.198 25.3625L147.243 64.0375C146.983 65.565 145.521 66.5725 143.961 66.3125Z" stroke="#4D4D61" stroke-width="0.975" stroke-miterlimit="10" stroke-linecap="round" stroke-linejoin="round"/>
<path d="M105.61 86.3H110.03V146.978H105.61V86.3Z" stroke="#4D4D61" stroke-width="0.975" stroke-miterlimit="10" stroke-linecap="round" stroke-linejoin="round"/>
<path d="M105.61 86.3H110.03V146.978H105.61V86.3Z" fill="#4D4D61"/>
<path d="M139.247 72.2925H98.6225C96.64 72.2925 95.015 70.6675 95.015 68.685V67.1575H142.855V68.685C142.855 70.6675 141.23 72.2925 139.247 72.2925Z" fill="#92B4C3"/>
<path d="M98.6225 71.1548H139.247C141.23 71.1548 142.855 69.5298 142.855 67.5473V68.6848C142.855 70.6673 141.23 72.2923 139.247 72.2923H98.6225C96.64 72.2923 95.015 70.6673 95.015 68.6848V67.5473C95.015 69.5298 96.64 71.1548 98.6225 71.1548Z" fill="#83ABBA"/>
<path d="M139.247 72.2925H98.6225C96.64 72.2925 95.015 70.6675 95.015 68.685V67.1575H142.855V68.685C142.855 70.6675 141.23 72.2925 139.247 72.2925Z" stroke="#4D4D61" stroke-width="0.975" stroke-miterlimit="10" stroke-linecap="round" stroke-linejoin="round"/>
<path d="M136.844 74.5414L101.029 74.5414L101.029 72.2664L136.844 72.2664L136.844 74.5414Z" stroke="#4D4D61" stroke-width="0.975" stroke-miterlimit="10" stroke-linecap="round" stroke-linejoin="round"/>
<path d="M136.844 74.5414L101.029 74.5414L101.029 72.2664L136.844 72.2664L136.844 74.5414Z" fill="#4D4D61"/>
<path d="M118.869 69.6798L115.652 69.6798L115.652 68.6073L118.869 68.6073L118.869 69.6798Z" stroke="#4D4D61" stroke-width="0.65" stroke-miterlimit="10" stroke-linecap="round" stroke-linejoin="round"/>
<path d="M123.456 69.6798L120.238 69.6798L120.238 68.6073L123.456 68.6073L123.456 69.6798Z" stroke="#4D4D61" stroke-width="0.65" stroke-miterlimit="10" stroke-linecap="round" stroke-linejoin="round"/>
<path d="M138.664 69.7251C138.341 69.7251 138.079 69.4632 138.079 69.1401C138.079 68.817 138.341 68.5551 138.664 68.5551C138.987 68.5551 139.249 68.817 139.249 69.1401C139.249 69.4632 138.987 69.7251 138.664 69.7251Z" stroke="#4D4D61" stroke-width="0.65" stroke-miterlimit="10" stroke-linecap="round" stroke-linejoin="round"/>
<path d="M24.0997 50.485C23.6122 46.7475 26.2772 43.335 30.0472 42.9775C33.6547 42.62 36.8397 45.285 37.3272 48.8925L41.7797 82.01C41.9747 83.505 40.9347 84.87 39.4397 85.065L35.5072 85.585C34.0122 85.78 32.6472 84.74 32.4522 83.245L31.8022 78.37C30.5997 69.4325 28.3897 60.5925 24.6197 52.4025C24.3922 51.8175 24.1972 51.1675 24.0997 50.485Z" fill="#FFCB5A"/>
<path d="M33.1347 78.37L33.7847 83.245C33.9472 84.3825 34.7922 85.2925 35.8647 85.52L35.5072 85.5525C34.0122 85.7475 32.6472 84.7075 32.4522 83.2125L31.8022 78.3375C30.5997 69.4 28.3897 60.56 24.6197 52.37C24.3597 51.785 24.1647 51.135 24.0672 50.485C23.5797 46.7475 26.2447 43.335 30.0147 42.9775C30.4372 42.945 30.8922 42.945 31.2822 42.9775C27.5122 43.3675 24.8472 46.78 25.3347 50.485C25.4322 51.1675 25.6272 51.785 25.8872 52.37" fill="#FFCB5A" fill-opacity="0.5"/>
<path d="M37.3284 48.8925L40.7734 74.5675C37.7834 66.02 34.8909 56.8225 34.8909 49.6725C34.8909 44.83 29.0084 43.205 27.3834 44.83C28.4559 42.8475 31.8684 42.6525 33.7209 43.725C35.7359 44.8625 37.1334 47.3 37.3284 48.8925Z" fill="#FFCB5A" fill-opacity="0.5"/>
<path d="M24.0997 50.485C23.6122 46.7475 26.2772 43.335 30.0472 42.9775C33.6547 42.62 36.8397 45.285 37.3272 48.8925L41.7797 82.01C41.9747 83.505 40.9347 84.87 39.4397 85.065L35.5072 85.585C34.0122 85.78 32.6472 84.74 32.4522 83.245L31.8022 78.37C30.5997 69.4325 28.3897 60.5925 24.6197 52.4025C24.3922 51.8175 24.1972 51.1675 24.0997 50.485Z" stroke="#4D4D61" stroke-width="0.975" stroke-miterlimit="10" stroke-linecap="round" stroke-linejoin="round"/>
<path d="M135.576 134.562L157.871 120.197C158.293 119.937 158.391 119.385 158.131 118.995L158.098 118.93C157.838 118.507 157.286 118.41 156.896 118.67L134.601 133.035C134.178 133.295 134.081 133.847 134.341 134.237L134.373 134.302C134.601 134.692 135.153 134.822 135.576 134.562Z" fill="#595D5C"/>
<path d="M135.576 134.562L157.871 120.197C158.293 119.937 158.391 119.385 158.131 118.995L158.098 118.93C157.838 118.507 157.286 118.41 156.896 118.67L134.601 133.035C134.178 133.295 134.081 133.847 134.341 134.237L134.373 134.302C134.601 134.692 135.153 134.822 135.576 134.562Z" stroke="#4D4D61" stroke-width="0.975" stroke-miterlimit="10" stroke-linecap="round" stroke-linejoin="round"/>
<path d="M133.202 127.25L133.3 127.185C134.405 127.38 135.835 127.055 137.135 126.21C138.11 125.592 138.857 124.747 139.28 123.935C139.67 123.187 140.19 122.505 140.872 122.05L149.485 116.232C150.492 115.55 151.825 115.42 153.092 115.842L155.887 116.817C156.83 117.142 157.122 118.475 156.375 118.962L134.795 132.872L132.877 129.882C132.292 128.94 132.422 127.77 133.202 127.25Z" fill="#9B8462"/>
<path opacity="0.74" d="M153.092 115.842L153.547 116.005C153.514 117.077 152.962 118.117 151.987 118.767L138.499 127.445C137.232 128.257 135.607 128.127 134.502 127.217C135.347 127.12 136.257 126.795 137.134 126.242C138.109 125.625 138.857 124.78 139.279 123.967C139.669 123.22 140.189 122.537 140.872 122.082L149.484 116.265C150.492 115.517 151.824 115.387 153.092 115.842Z" fill="#E1C885"/>
<path d="M133.202 127.25L133.3 127.185C134.405 127.38 135.835 127.055 137.135 126.21C138.11 125.592 138.857 124.747 139.28 123.935C139.67 123.187 140.19 122.505 140.872 122.05L149.485 116.232C150.492 115.55 151.825 115.42 153.092 115.842L155.887 116.817C156.83 117.142 157.122 118.475 156.375 118.962L134.795 132.872L132.877 129.882C132.292 128.94 132.422 127.77 133.202 127.25Z" stroke="#4D4D61" stroke-width="0.975" stroke-miterlimit="10" stroke-linecap="round" stroke-linejoin="round"/>
<path d="M143.082 123.935L139.67 123.285L140.547 122.31L143.082 123.935Z" stroke="#4D4D61" stroke-width="0.975" stroke-miterlimit="10" stroke-linecap="round" stroke-linejoin="round"/>
<path d="M133.723 114.868L136.42 117.533L129.823 125.82L126.573 123.123L133.723 114.868Z" fill="#92B4C3"/>
<path d="M133.918 115.062L136.42 117.532L132.845 122.018C132.26 121.173 131.903 120.165 131.903 119.093C131.903 117.468 132.683 116.005 133.918 115.062Z" fill="#9EC0CC"/>
<path d="M133.723 114.868L136.42 117.533L129.823 125.82L126.573 123.123L133.723 114.868Z" stroke="#4D4D61" stroke-width="0.975" stroke-miterlimit="10" stroke-linecap="round" stroke-linejoin="round"/>
<path d="M80.4858 125.463L78.4383 128.68L68.9483 123.935L70.8983 120.198L80.4858 125.463Z" fill="#92B4C3"/>
<path d="M80.4858 125.463L78.4383 128.68L68.9483 123.935L70.8983 120.198L80.4858 125.463Z" fill="#92B4C3"/>
<path d="M76.8133 125.853C76.8133 125.138 77.2033 124.52 77.8533 124L80.4858 125.462L78.6983 128.257C77.5608 127.705 76.8133 126.828 76.8133 125.853Z" fill="#9EC0CC"/>
<path d="M80.4858 125.463L78.4383 128.68L68.9483 123.935L70.8983 120.198L80.4858 125.463Z" stroke="#4D4D61" stroke-width="0.975" stroke-miterlimit="10" stroke-linecap="round" stroke-linejoin="round"/>
<path d="M106.974 48.0149C106.831 48.0149 106.714 47.8258 106.714 47.5924C106.714 47.3591 106.831 47.1699 106.974 47.1699C107.118 47.1699 107.234 47.3591 107.234 47.5924C107.234 47.8258 107.118 48.0149 106.974 48.0149Z" stroke="#4D4D61" stroke-width="0.65" stroke-miterlimit="10" stroke-linecap="round" stroke-linejoin="round"/>
<path d="M133.724 70.7324H135.349C135.771 70.7324 136.129 70.3749 136.129 69.9524V68.9774C136.129 68.5549 135.771 68.1974 135.349 68.1974H133.724C133.301 68.1974 132.944 68.5549 132.944 68.9774V69.9524C132.944 70.3749 133.301 70.7324 133.724 70.7324Z" fill="#4D4D61"/>
</svg>
